{"glyphs":{"0":{"ha":993,"x_min":86,"x_max":907,"o":"m 283 202 q 324 143 283 202 q 499 83 365 83 q 713 200 632 83 q 793 483 793 317 l 793 486 q 710 770 793 651 q 496 889 628 889 q 282 772 364 889 q 200 489 200 656 l 200 486 q 283 202 200 321 m 793 130 q 736 57 793 130 q 496 -17 679 -17 q 199 128 313 -17 q 86 483 86 274 l 86 486 q 201 842 86 696 q 499 989 315 989 q 794 844 682 989 q 907 489 907 699 l 907 486 q 793 130 907 276 z "},"1":{"ha":497,"x_min":39,"x_max":357,"o":"m 249 0 l 249 865 l 65 808 l 39 897 l 276 979 l 357 979 l 357 0 l 249 0 z "},"2":{"ha":832,"x_min":67,"x_max":746,"o":"m 67 0 l 67 85 l 419 396 q 578 563 533 497 q 622 701 622 629 q 565 836 622 785 q 426 888 508 888 q 286 847 346 888 q 165 721 226 807 l 85 779 q 235 936 158 886 q 435 986 313 986 q 651 908 565 986 q 736 711 736 831 l 736 708 q 682 528 736 607 q 490 331 628 450 l 231 100 l 746 100 l 746 0 l 67 0 z "},"3":{"ha":851,"x_min":69,"x_max":757,"o":"m 432 -17 q 69 157 201 -17 l 149 228 q 433 83 267 83 q 585 135 524 83 q 646 272 646 188 l 646 275 q 571 413 646 364 q 374 463 496 463 l 311 463 l 289 528 l 596 874 l 121 874 l 121 972 l 742 972 l 742 892 l 436 553 q 667 473 576 540 q 757 279 757 406 l 757 276 q 663 66 757 149 q 432 -17 569 -17 z "},"4":{"ha":932,"x_min":60,"x_max":857,"o":"m 192 322 l 600 322 l 600 824 l 192 322 m 600 0 l 600 231 l 88 231 l 60 310 l 610 979 l 706 979 l 706 322 l 857 322 l 857 231 l 706 231 l 706 0 l 600 0 z "},"5":{"ha":850,"x_min":74,"x_max":768,"o":"m 421 -17 q 74 138 228 -17 l 146 217 q 422 83 282 83 q 591 144 525 83 q 657 299 657 206 l 657 301 q 589 449 657 393 q 415 506 521 506 q 211 450 310 506 l 138 499 l 165 972 l 725 972 l 725 871 l 261 871 l 240 560 q 432 603 333 603 q 673 522 578 603 q 768 306 768 442 l 768 303 q 672 72 768 161 q 421 -17 575 -17 z "},"6":{"ha":899,"x_min":85,"x_max":811,"o":"m 464 81 q 634 144 569 81 q 699 303 699 208 l 699 306 q 632 454 699 394 q 461 514 565 514 q 287 449 356 514 q 218 301 218 385 l 218 299 q 288 143 218 206 q 464 81 357 81 m 463 -17 q 207 82 306 -17 q 115 231 144 144 q 85 458 85 317 l 85 461 q 194 840 85 690 q 489 989 303 989 q 776 878 643 989 l 713 793 q 483 889 599 889 q 276 769 353 889 q 199 460 199 650 q 475 608 297 608 q 713 526 615 608 q 811 310 811 443 l 811 307 q 711 75 811 167 q 463 -17 611 -17 z "},"7":{"ha":828,"x_min":94,"x_max":754,"o":"m 190 0 l 629 872 l 94 872 l 94 972 l 754 972 l 754 890 l 313 0 l 190 0 z "},"8":{"ha":875,"x_min":72,"x_max":803,"o":"m 252 135 q 286 108 252 135 q 438 82 321 82 q 623 135 554 82 q 692 264 692 188 l 692 267 q 618 399 692 346 q 438 451 544 451 q 257 399 331 451 q 183 267 183 346 l 183 264 q 252 135 183 188 m 279 592 q 311 567 279 592 q 438 542 343 542 q 596 592 532 542 q 660 719 660 642 l 660 722 q 597 842 660 794 q 438 890 533 890 q 278 842 342 890 q 215 722 215 794 l 215 719 q 279 592 215 642 m 699 63 q 647 25 699 63 q 438 -14 594 -14 q 176 63 281 -14 q 72 261 72 140 l 72 264 q 126 408 72 347 q 272 503 181 468 q 106 726 106 579 l 106 729 q 203 913 106 839 q 438 986 301 986 q 672 913 574 986 q 769 729 769 839 l 769 726 q 603 503 769 579 q 749 408 694 468 q 803 265 803 349 l 803 263 q 699 63 803 140 z "},"9":{"ha":899,"x_min":88,"x_max":814,"o":"m 439 449 q 614 515 547 449 q 681 668 681 581 l 681 671 q 611 828 681 764 q 433 892 542 892 q 264 825 328 892 q 200 664 200 758 l 200 661 q 267 508 200 568 q 439 449 333 449 m 410 -17 q 110 103 256 -17 l 174 188 q 413 83 290 83 q 624 203 543 83 q 701 510 704 322 q 426 354 601 354 q 182 439 276 354 q 88 656 88 524 l 88 658 q 186 894 88 799 q 438 989 285 989 q 693 889 593 989 q 814 513 814 768 l 814 510 q 701 131 814 278 q 410 -17 589 -17 z "}," ":{"ha":417,"x_min":0,"x_max":0,"o":""},"!":{"ha":376,"x_min":125,"x_max":253,"o":"m 125 0 l 125 146 l 253 146 l 253 0 l 125 0 m 158 275 l 126 893 l 126 972 l 251 972 l 251 893 l 218 275 l 158 275 z "},"\"":{"ha":611,"x_min":90,"x_max":532,"o":"m 90 594 l 132 972 l 261 972 l 261 965 l 149 594 l 90 594 m 361 594 l 404 972 l 532 972 l 532 965 l 419 594 l 361 594 z "},"#":{"ha":972,"x_min":63,"x_max":908,"o":"m 329 342 l 593 342 l 643 636 l 379 636 l 329 342 m 172 0 l 214 246 l 63 246 l 63 342 l 231 342 l 282 636 l 117 636 l 117 732 l 297 732 l 339 972 l 436 972 l 396 732 l 660 732 l 701 972 l 799 972 l 758 732 l 908 732 l 908 636 l 742 636 l 690 342 l 854 342 l 854 246 l 675 246 l 632 0 l 535 0 l 576 246 l 313 246 l 269 0 l 172 0 z "},"$":{"ha":883,"x_min":78,"x_max":790,"o":"m 490 425 l 490 93 q 631 142 578 97 q 683 254 683 186 l 683 257 q 642 360 683 322 q 490 425 601 399 m 410 553 l 410 879 q 272 833 324 876 q 221 724 221 789 l 221 721 q 262 619 221 660 q 410 553 303 579 m 406 -136 l 406 3 q 78 146 228 18 l 140 229 q 410 97 268 113 l 410 444 q 184 544 254 482 q 114 714 114 607 l 114 717 q 196 895 114 824 q 406 972 278 967 l 406 1053 l 494 1053 l 494 969 q 760 858 631 957 l 700 775 q 490 875 606 856 l 490 533 q 719 433 649 497 q 790 264 790 369 l 790 261 q 709 79 790 150 q 494 0 628 8 l 494 -136 l 406 -136 z "},"%":{"ha":1158,"x_min":72,"x_max":1085,"o":"m 867 67 q 958 115 922 67 q 993 235 993 164 l 993 238 q 956 359 993 310 q 864 408 918 408 q 773 360 808 408 q 738 240 738 311 l 738 238 q 775 116 738 165 q 867 67 813 67 m 294 564 q 385 613 350 564 q 421 732 421 661 l 421 735 q 383 856 421 806 q 292 906 344 906 q 201 857 236 906 q 165 738 165 808 l 165 735 q 203 613 165 663 q 294 564 240 564 m 864 -11 q 708 62 769 -11 q 646 235 646 135 l 646 238 q 708 413 646 339 q 867 486 771 486 q 1024 413 964 486 q 1085 240 1085 340 l 1085 238 q 1023 62 1085 135 q 864 -11 961 -11 m 172 0 l 886 972 l 985 972 l 272 0 l 172 0 m 450 560 q 419 523 450 560 q 292 486 388 486 q 134 559 196 486 q 72 732 72 632 l 72 735 q 135 910 72 836 q 294 983 197 983 q 451 910 389 983 q 513 738 513 838 l 513 735 q 450 560 513 633 z "},"&":{"ha":967,"x_min":63,"x_max":922,"o":"m 376 79 q 619 206 504 79 l 360 474 q 174 265 174 404 l 174 263 q 231 131 174 183 q 376 79 288 79 m 403 576 q 590 761 590 642 l 590 764 q 551 860 590 822 q 453 899 513 899 q 347 858 388 899 q 306 758 306 818 l 306 756 q 326 674 306 713 q 403 576 347 635 m 839 -19 l 686 138 q 368 -14 546 -14 q 149 62 236 -14 q 63 258 63 138 l 63 261 q 297 542 63 449 q 223 650 246 601 q 200 756 200 699 l 200 758 q 272 922 200 856 q 457 989 343 989 q 626 925 558 989 q 693 769 693 861 l 693 767 q 464 514 693 594 l 686 288 q 803 504 750 381 l 893 463 q 753 218 822 308 l 922 44 l 839 -19 z "},"'":{"ha":340,"x_min":90,"x_max":263,"o":"m 90 594 l 132 972 l 263 972 l 263 965 l 150 594 l 90 594 z "},"(":{"ha":603,"x_min":94,"x_max":525,"o":"m 525 -125 l 479 -196 q 94 399 94 19 q 479 993 94 778 l 525 922 q 203 399 203 718 q 525 -125 203 79 z "},")":{"ha":603,"x_min":78,"x_max":508,"o":"m 124 -196 l 78 -125 q 400 399 400 79 q 78 922 400 718 l 124 993 q 508 399 508 778 q 124 -196 508 19 z "},"*":{"ha":597,"x_min":96,"x_max":501,"o":"m 263 551 l 276 725 l 133 624 l 96 689 l 257 763 l 96 838 l 133 901 l 276 801 l 263 975 l 335 975 l 321 801 l 464 901 l 501 838 l 340 763 l 501 689 l 464 624 l 321 725 l 335 551 l 263 551 z "},"+":{"ha":889,"x_min":104,"x_max":785,"o":"m 393 153 l 393 439 l 104 439 l 104 539 l 393 539 l 393 825 l 496 825 l 496 539 l 785 539 l 785 439 l 496 439 l 496 153 l 393 153 z "},",":{"ha":340,"x_min":64,"x_max":235,"o":"m 81 -169 l 64 -121 q 157 0 165 -83 l 107 0 l 107 146 l 235 146 l 235 21 q 198 -107 235 -62 q 81 -169 161 -151 z "},"-":{"ha":567,"x_min":90,"x_max":476,"o":"m 90 361 l 90 474 l 476 474 l 476 361 l 90 361 z "},".":{"ha":340,"x_min":107,"x_max":235,"o":"m 107 0 l 107 146 l 235 146 l 235 0 l 107 0 z "},"/":{"ha":706,"x_min":-29,"x_max":714,"o":"m -29 -178 l 615 1108 l 714 1108 l 69 -178 l -29 -178 z "},":":{"ha":354,"x_min":114,"x_max":242,"o":"m 114 0 l 114 146 l 242 146 l 242 0 l 114 0 m 114 572 l 114 718 l 242 718 l 242 572 l 114 572 z "},";":{"ha":354,"x_min":71,"x_max":242,"o":"m 88 -169 l 71 -121 q 164 0 172 -83 l 114 0 l 114 146 l 242 146 l 242 21 q 205 -107 242 -62 q 88 -169 168 -151 m 114 572 l 114 718 l 242 718 l 242 572 l 114 572 z "},"<":{"ha":889,"x_min":100,"x_max":751,"o":"m 751 119 l 100 443 l 100 535 l 751 858 l 751 751 l 217 490 l 751 228 l 751 119 z "},"=":{"ha":889,"x_min":125,"x_max":764,"o":"m 125 275 l 125 378 l 764 378 l 764 275 l 125 275 m 125 600 l 125 703 l 764 703 l 764 600 l 125 600 z "},">":{"ha":889,"x_min":138,"x_max":789,"o":"m 138 119 l 138 226 l 672 488 l 138 750 l 138 858 l 789 535 l 789 443 l 138 119 z "},"?":{"ha":746,"x_min":42,"x_max":679,"o":"m 276 0 l 276 146 l 404 146 l 404 0 l 276 0 m 306 275 l 285 500 l 292 507 q 497 562 426 510 q 568 703 568 614 l 568 706 q 513 835 568 783 q 365 886 457 886 q 113 756 224 886 l 42 824 q 368 985 175 985 q 593 907 507 985 q 679 710 679 829 l 679 707 q 599 513 679 583 q 390 425 518 443 l 376 275 l 306 275 z "},"@":{"ha":1361,"x_min":74,"x_max":1288,"o":"m 625 185 q 783 261 714 185 q 853 435 853 338 q 805 561 853 511 q 683 611 757 611 q 524 538 593 611 q 456 358 456 464 q 502 231 456 276 q 625 185 549 185 m 693 -225 q 251 -48 429 -225 q 74 381 74 129 q 251 810 74 631 q 682 989 428 989 q 1110 824 933 989 q 1288 439 1288 660 q 1210 186 1288 274 q 1028 99 1133 99 q 833 215 876 99 q 604 99 736 99 q 427 169 499 99 q 356 351 356 240 q 455 596 356 494 q 676 697 554 697 q 879 582 815 697 l 897 678 l 990 665 l 935 350 q 925 265 925 296 q 956 182 925 211 q 1043 153 986 153 q 1181 226 1124 153 q 1238 439 1238 300 q 1194 625 1238 533 q 1078 786 1151 717 q 901 899 1006 856 q 682 942 797 942 q 285 777 446 942 q 124 381 124 613 q 285 -16 124 146 q 693 -178 446 -178 q 1039 -83 878 -178 l 1061 -121 q 693 -225 890 -225 z "},"A":{"ha":1097,"x_min":54,"x_max":1043,"o":"m 325 356 l 768 356 l 547 851 l 325 356 m 54 0 l 497 979 l 600 979 l 1043 0 l 925 0 l 811 257 l 282 257 l 167 0 l 54 0 z "},"B":{"ha":1003,"x_min":138,"x_max":922,"o":"m 246 99 l 572 99 q 748 144 685 99 q 811 272 811 190 l 811 275 q 745 399 811 356 q 553 442 679 442 l 246 442 l 246 99 m 246 539 l 533 539 q 697 583 636 539 q 757 713 757 628 l 757 715 q 701 831 757 789 q 542 874 644 874 l 246 874 l 246 539 m 138 0 l 138 972 l 551 972 q 806 886 717 972 q 868 731 868 822 l 868 728 q 714 503 868 569 q 922 268 922 443 l 922 265 q 826 71 922 142 q 569 0 731 0 l 138 0 z "},"C":{"ha":1025,"x_min":94,"x_max":971,"o":"m 582 -17 q 234 128 374 -17 q 94 483 94 272 l 94 486 q 235 842 94 696 q 586 989 375 989 q 799 950 711 989 q 965 835 888 911 l 890 754 q 749 853 821 819 q 585 888 678 888 q 316 772 424 888 q 208 489 208 657 l 208 486 q 316 201 208 317 q 585 85 424 85 q 751 119 679 85 q 899 225 824 154 l 971 154 q 797 27 889 71 q 582 -17 706 -17 z "},"D":{"ha":1086,"x_min":138,"x_max":992,"o":"m 247 101 l 475 101 q 767 210 657 101 q 878 483 878 318 l 878 486 q 767 761 878 651 q 475 871 656 871 l 247 871 l 247 101 m 138 0 l 138 972 l 475 972 q 847 834 701 972 q 992 489 992 696 l 992 486 q 847 139 992 278 q 475 0 701 0 l 138 0 z "},"E":{"ha":931,"x_min":138,"x_max":847,"o":"m 138 0 l 138 972 l 840 972 l 840 872 l 247 872 l 247 540 l 778 540 l 778 440 l 247 440 l 247 100 l 847 100 l 847 0 l 138 0 z "},"F":{"ha":911,"x_min":138,"x_max":836,"o":"m 138 0 l 138 972 l 836 972 l 836 871 l 247 871 l 247 524 l 774 524 l 774 424 l 247 424 l 247 0 l 138 0 z "},"G":{"ha":1089,"x_min":94,"x_max":979,"o":"m 589 -17 q 230 126 365 -17 q 94 483 94 269 l 94 486 q 232 840 94 692 q 582 989 369 989 q 783 957 699 989 q 944 860 867 925 l 874 776 q 578 888 749 888 q 314 771 419 888 q 208 489 208 654 l 208 486 q 313 196 208 310 q 593 82 418 82 q 874 179 754 82 l 874 421 l 578 421 l 578 519 l 979 519 l 979 132 q 589 -17 815 -17 z "},"H":{"ha":1056,"x_min":138,"x_max":918,"o":"m 138 0 l 138 972 l 247 972 l 247 540 l 808 540 l 808 972 l 918 972 l 918 0 l 808 0 l 808 438 l 247 438 l 247 0 l 138 0 z "},"I":{"ha":404,"x_min":147,"x_max":257,"o":"m 147 0 l 147 972 l 257 972 l 257 0 l 147 0 z "},"J":{"ha":768,"x_min":43,"x_max":646,"o":"m 343 -14 q 43 158 149 -14 l 122 226 q 220 122 169 156 q 344 88 271 88 q 482 148 429 88 q 535 321 535 208 l 535 972 l 646 972 l 646 322 q 557 67 646 156 q 343 -14 475 -14 z "},"K":{"ha":999,"x_min":138,"x_max":965,"o":"m 138 0 l 138 972 l 247 972 l 247 392 l 806 972 l 947 972 l 531 547 l 965 0 l 828 0 l 454 471 l 247 261 l 247 0 l 138 0 z "},"L":{"ha":860,"x_min":138,"x_max":794,"o":"m 138 0 l 138 972 l 247 972 l 247 101 l 794 101 l 794 0 l 138 0 z "},"M":{"ha":1206,"x_min":138,"x_max":1068,"o":"m 138 0 l 138 972 l 249 972 l 603 442 l 957 972 l 1068 972 l 1068 0 l 958 0 l 958 788 l 604 267 l 599 267 l 244 786 l 244 0 l 138 0 z "},"N":{"ha":1097,"x_min":138,"x_max":960,"o":"m 138 0 l 138 972 l 240 972 l 853 193 l 853 972 l 960 972 l 960 0 l 872 0 l 244 797 l 244 0 l 138 0 z "},"O":{"ha":1181,"x_min":94,"x_max":1086,"o":"m 317 201 q 372 143 317 201 q 592 85 426 85 q 865 200 757 85 q 972 483 972 315 l 972 486 q 863 771 972 654 q 589 888 754 888 q 316 772 424 888 q 208 489 208 657 l 208 486 q 317 201 208 318 m 946 131 q 876 57 946 131 q 589 -17 806 -17 q 233 130 372 -17 q 94 483 94 276 l 94 486 q 235 841 94 693 q 592 989 375 989 q 947 842 808 989 q 1086 489 1086 696 q 1086 486 1088 488 q 946 131 1086 279 z "},"P":{"ha":928,"x_min":138,"x_max":865,"o":"m 247 443 l 488 443 q 681 502 608 443 q 754 657 754 561 l 754 660 q 684 816 754 761 q 493 871 614 871 l 247 871 l 247 443 m 138 0 l 138 972 l 501 972 q 766 890 667 972 q 865 664 865 807 l 865 661 q 756 426 865 510 q 483 343 647 343 l 247 343 l 247 0 l 138 0 z "},"Q":{"ha":1181,"x_min":94,"x_max":1099,"o":"m 592 85 q 815 158 719 85 l 635 313 l 708 394 l 888 232 q 972 483 972 339 l 972 486 q 863 771 972 654 q 589 888 754 888 q 316 772 424 888 q 208 489 208 657 l 208 486 q 317 201 208 318 q 592 85 426 85 m 1024 -29 l 896 88 q 589 -17 763 -17 q 233 130 372 -17 q 94 483 94 276 l 94 486 q 235 841 94 693 q 592 989 375 989 q 947 842 808 989 q 1086 489 1086 696 q 1086 486 1088 488 q 969 160 1086 296 l 1099 53 l 1024 -29 z "},"R":{"ha":1004,"x_min":138,"x_max":942,"o":"m 247 476 l 546 476 q 726 531 657 476 q 796 676 796 585 l 796 679 q 731 820 796 769 q 547 871 665 871 l 247 871 l 247 476 m 138 0 l 138 972 l 556 972 q 832 875 735 972 q 907 683 907 800 l 907 681 q 835 491 907 564 q 643 397 763 418 l 942 0 l 807 0 l 525 378 l 522 378 l 247 378 l 247 0 l 138 0 z "},"S":{"ha":889,"x_min":74,"x_max":803,"o":"m 471 -14 q 74 142 246 -14 l 142 222 q 298 118 219 151 q 475 85 376 85 q 632 131 572 85 q 692 250 692 178 l 692 253 q 639 365 692 324 q 439 438 586 406 q 190 538 267 475 q 113 718 113 601 l 113 721 q 203 910 113 835 q 432 986 294 986 q 616 957 536 986 q 774 867 696 928 l 710 782 q 429 888 581 888 q 278 843 335 888 q 222 731 222 799 l 222 728 q 277 613 222 656 q 486 539 332 571 q 727 438 651 501 q 803 264 803 374 l 803 261 q 710 62 803 138 q 471 -14 617 -14 z "},"T":{"ha":900,"x_min":68,"x_max":832,"o":"m 394 0 l 394 871 l 68 871 l 68 972 l 832 972 l 832 871 l 506 871 l 506 0 l 394 0 z "},"U":{"ha":1054,"x_min":122,"x_max":932,"o":"m 526 -15 q 232 95 342 -15 q 122 407 122 206 l 122 972 l 232 972 l 232 414 q 310 172 232 257 q 529 86 388 86 q 744 168 667 86 q 822 407 822 250 l 822 972 l 932 972 l 932 415 q 823 96 932 207 q 526 -15 714 -15 z "},"V":{"ha":1042,"x_min":54,"x_max":988,"o":"m 472 -7 l 54 972 l 176 972 l 522 135 l 869 972 l 988 972 l 569 -7 l 472 -7 z "},"W":{"ha":1538,"x_min":63,"x_max":1476,"o":"m 410 -7 l 63 972 l 182 972 l 460 163 l 726 975 l 817 975 l 1083 163 l 1361 972 l 1476 972 l 1129 -7 l 1036 -7 l 769 782 l 501 -7 l 410 -7 z "},"X":{"ha":1007,"x_min":64,"x_max":943,"o":"m 64 0 l 438 496 l 78 972 l 207 972 l 506 575 l 801 972 l 929 972 l 569 497 l 943 0 l 813 0 l 501 418 l 190 0 l 64 0 z "},"Y":{"ha":994,"x_min":38,"x_max":957,"o":"m 442 0 l 442 385 l 38 972 l 171 972 l 499 486 l 829 972 l 957 972 l 553 386 l 553 0 l 442 0 z "},"Z":{"ha":963,"x_min":93,"x_max":872,"o":"m 93 0 l 93 74 l 722 874 l 114 874 l 114 972 l 872 972 l 872 899 l 242 99 l 872 99 l 872 0 l 93 0 z "},"[":{"ha":610,"x_min":131,"x_max":528,"o":"m 131 -181 l 131 972 l 528 972 l 528 889 l 232 889 l 232 -97 l 528 -97 l 528 -181 l 131 -181 z "},"\\":{"ha":706,"x_min":-8,"x_max":735,"o":"m 636 -178 l -8 1108 l 90 1108 l 735 -178 l 636 -178 z "},"]":{"ha":610,"x_min":82,"x_max":479,"o":"m 82 -181 l 82 -97 l 379 -97 l 379 889 l 82 889 l 82 972 l 479 972 l 479 -181 l 82 -181 z "},"^":{"ha":694,"x_min":90,"x_max":604,"o":"m 90 685 l 306 975 l 389 975 l 604 685 l 510 685 l 346 899 l 182 685 l 90 685 z "},"_":{"ha":833,"x_min":-3,"x_max":836,"o":"m -3 -222 l -3 -135 l 836 -135 l 836 -222 l -3 -222 z "},"`":{"ha":694,"x_min":200,"x_max":443,"o":"m 357 826 l 200 976 l 311 1028 l 443 826 l 357 826 z "},"a":{"ha":804,"x_min":65,"x_max":697,"o":"m 354 71 q 524 125 456 71 q 593 264 593 179 l 593 331 q 383 361 485 361 q 229 322 285 361 q 174 217 174 283 l 174 214 q 226 110 174 149 q 354 71 279 71 m 333 -15 q 144 44 224 -15 q 65 208 65 103 l 65 211 q 149 385 65 324 q 372 446 232 446 q 592 415 481 446 l 592 438 q 536 582 592 532 q 379 632 481 632 q 161 581 268 632 l 129 668 q 390 729 258 729 q 622 650 543 729 q 697 439 697 575 l 697 0 l 592 0 l 592 107 q 333 -15 499 -15 z "},"b":{"ha":922,"x_min":119,"x_max":844,"o":"m 482 81 q 663 156 590 81 q 735 357 735 231 l 735 360 q 662 561 735 485 q 482 638 589 638 q 301 558 379 638 q 222 361 222 479 l 222 358 q 300 159 222 238 q 482 81 378 81 m 501 -15 q 226 138 331 -15 l 226 0 l 119 0 l 119 1014 l 226 1014 l 226 574 q 501 733 339 733 q 742 632 639 733 q 844 361 844 531 l 844 358 q 742 88 844 190 q 501 -15 639 -15 z "},"c":{"ha":793,"x_min":75,"x_max":736,"o":"m 443 -17 q 181 93 286 -17 q 75 356 75 203 l 75 358 q 181 624 75 514 q 443 733 286 733 q 731 606 610 733 l 660 531 q 442 639 557 639 q 258 558 332 639 q 185 361 185 478 l 185 358 q 260 160 185 242 q 449 79 336 79 q 668 186 568 79 l 736 122 q 443 -17 614 -17 z "},"d":{"ha":922,"x_min":78,"x_max":803,"o":"m 440 81 q 622 159 544 81 q 700 358 700 238 l 700 361 q 622 559 700 481 q 440 638 544 638 q 260 563 332 638 q 188 361 188 488 l 188 358 q 260 157 188 233 q 440 81 333 81 m 421 -15 q 181 86 283 -15 q 78 357 78 188 l 78 360 q 181 631 78 528 q 421 733 283 733 q 696 581 592 733 l 696 1014 l 803 1014 l 803 0 l 696 0 l 696 144 q 421 -15 585 -15 z "},"e":{"ha":822,"x_min":75,"x_max":754,"o":"m 183 401 l 646 401 q 577 574 638 504 q 417 643 517 643 q 260 575 325 643 q 183 401 194 507 m 753 315 l 183 315 q 266 141 194 206 q 436 76 338 76 q 663 178 564 76 l 729 118 q 433 -17 611 -17 q 179 89 283 -17 q 75 358 75 194 q 173 625 75 517 q 419 733 271 733 q 664 625 574 733 q 754 353 754 517 q 753 315 754 332 z "},"f":{"ha":510,"x_min":61,"x_max":494,"o":"m 160 0 l 160 624 l 61 624 l 61 717 l 160 717 l 160 779 q 222 964 160 901 q 376 1019 278 1019 q 494 1001 444 1019 l 494 908 q 390 926 432 926 q 265 774 265 926 l 265 715 l 493 715 l 493 624 l 267 624 l 267 0 l 160 0 z "},"g":{"ha":922,"x_min":78,"x_max":803,"o":"m 436 150 q 621 219 542 150 q 700 393 700 288 l 700 396 q 622 571 700 503 q 436 639 543 639 q 259 572 331 639 q 188 397 188 506 l 188 394 q 260 219 188 289 q 436 150 333 150 m 438 -225 q 111 -125 256 -225 l 160 -42 q 436 -133 288 -133 q 628 -67 558 -133 q 697 122 697 -1 l 697 207 q 415 56 583 56 q 179 149 281 56 q 78 392 78 243 l 78 394 q 178 640 78 546 q 415 733 279 733 q 696 589 585 733 l 696 718 l 803 718 l 803 125 q 711 -129 803 -37 q 438 -225 615 -225 z "},"h":{"ha":856,"x_min":119,"x_max":747,"o":"m 119 0 l 119 1014 l 226 1014 l 226 593 q 472 733 314 733 q 674 654 600 733 q 747 446 747 575 l 747 0 l 640 0 l 640 419 q 588 578 640 521 q 442 636 536 636 q 288 574 349 636 q 226 411 226 511 l 226 0 l 119 0 z "},"i":{"ha":365,"x_min":122,"x_max":244,"o":"m 129 0 l 129 718 l 236 718 l 236 0 l 129 0 m 122 875 l 122 993 l 244 993 l 244 875 l 122 875 z "},"j":{"ha":365,"x_min":-6,"x_max":244,"o":"m 61 -226 q -6 -219 24 -226 l -6 -132 q 47 -136 11 -136 q 129 -40 129 -136 l 129 718 l 236 718 l 236 -42 q 61 -226 236 -226 m 122 875 l 122 993 l 244 993 l 244 875 l 122 875 z "},"k":{"ha":790,"x_min":119,"x_max":757,"o":"m 119 0 l 119 1014 l 226 1014 l 226 314 l 614 718 l 747 718 l 446 410 l 757 0 l 629 0 l 372 335 l 226 188 l 226 0 l 119 0 z "},"l":{"ha":365,"x_min":129,"x_max":236,"o":"m 129 0 l 129 1014 l 236 1014 l 236 0 l 129 0 z "},"m":{"ha":1321,"x_min":119,"x_max":1208,"o":"m 119 0 l 119 718 l 226 718 l 226 597 q 322 697 269 661 q 458 733 375 733 q 689 590 621 733 q 942 733 785 733 q 1138 656 1067 733 q 1208 444 1208 579 l 1208 0 l 1101 0 l 1101 419 q 1052 580 1101 524 q 915 636 1003 636 q 774 576 832 636 q 717 414 717 517 l 717 0 l 611 0 l 611 422 q 562 580 611 524 q 426 636 513 636 q 283 572 340 636 q 226 410 226 508 l 226 0 l 119 0 z "},"n":{"ha":856,"x_min":119,"x_max":747,"o":"m 119 0 l 119 718 l 226 718 l 226 593 q 472 733 314 733 q 674 654 600 733 q 747 446 747 575 l 747 0 l 640 0 l 640 419 q 588 578 640 521 q 442 636 536 636 q 288 574 349 636 q 226 411 226 511 l 226 0 l 119 0 z "},"o":{"ha":897,"x_min":75,"x_max":824,"o":"m 450 79 q 639 160 564 79 q 714 356 714 240 l 714 358 q 637 557 714 475 q 447 639 560 639 q 259 558 333 639 q 185 361 185 476 l 185 358 q 261 160 185 242 q 450 79 338 79 m 447 -17 q 181 92 288 -17 q 75 356 75 201 l 75 358 q 182 624 75 514 q 450 733 289 733 q 717 624 610 733 q 824 361 824 515 l 824 358 q 716 93 824 203 q 447 -17 608 -17 z "},"p":{"ha":922,"x_min":119,"x_max":844,"o":"m 482 81 q 663 156 590 81 q 735 357 735 231 l 735 360 q 662 561 735 485 q 482 638 589 638 q 301 558 379 638 q 222 361 222 479 l 222 358 q 300 159 222 238 q 482 81 378 81 m 119 -222 l 119 718 l 226 718 l 226 574 q 501 733 339 733 q 742 632 639 733 q 844 361 844 531 l 844 358 q 742 88 844 190 q 501 -15 639 -15 q 226 138 331 -15 l 226 -222 l 119 -222 z "},"q":{"ha":922,"x_min":78,"x_max":803,"o":"m 440 81 q 622 159 544 81 q 700 358 700 238 l 700 361 q 622 559 700 481 q 440 638 544 638 q 260 563 332 638 q 188 361 188 488 l 188 358 q 260 157 188 233 q 440 81 333 81 m 696 -222 l 696 144 q 421 -15 585 -15 q 181 86 283 -15 q 78 357 78 188 l 78 360 q 181 631 78 528 q 421 733 283 733 q 696 581 592 733 l 696 718 l 803 718 l 803 -222 l 696 -222 z "},"r":{"ha":563,"x_min":119,"x_max":519,"o":"m 119 0 l 119 718 l 226 718 l 226 531 q 344 678 268 624 q 519 731 421 733 l 519 615 l 511 615 q 307 529 388 615 q 226 286 226 443 l 226 0 l 119 0 z "},"s":{"ha":692,"x_min":60,"x_max":613,"o":"m 357 -14 q 60 92 192 -14 l 114 168 q 363 76 233 76 q 470 107 429 76 q 511 190 511 138 l 511 193 q 465 268 511 242 q 332 319 419 294 q 275 337 293 331 q 222 357 257 343 q 170 384 188 371 q 133 417 153 397 q 103 464 113 438 q 94 522 94 490 l 94 525 q 163 674 94 617 q 339 731 232 731 q 597 651 478 731 l 549 571 q 336 640 442 640 q 235 611 274 640 q 197 536 197 582 l 197 533 q 208 497 197 514 q 233 469 219 481 q 277 446 247 458 q 325 428 307 433 q 382 410 343 422 q 449 388 422 397 q 510 360 476 378 q 565 323 544 343 q 599 272 585 303 q 613 204 613 242 l 613 201 q 540 44 613 101 q 357 -14 468 -14 z "},"t":{"ha":561,"x_min":57,"x_max":492,"o":"m 360 -12 q 212 37 267 -12 q 157 190 157 86 l 157 624 l 57 624 l 57 718 l 157 718 l 157 935 l 264 935 l 264 718 l 492 718 l 492 624 l 264 624 l 264 204 q 385 85 264 85 q 489 110 438 85 l 489 18 q 360 -12 433 -12 z "},"u":{"ha":856,"x_min":108,"x_max":735,"o":"m 383 -15 q 182 64 256 -15 q 108 272 108 143 l 108 718 l 215 718 l 215 299 q 267 140 215 197 q 414 82 319 82 q 568 144 507 82 q 629 307 629 207 l 629 718 l 735 718 l 735 0 l 629 0 l 629 125 q 383 -15 542 -15 z "},"v":{"ha":815,"x_min":49,"x_max":767,"o":"m 360 -6 l 49 718 l 167 718 l 408 122 l 651 718 l 767 718 l 454 -6 l 360 -6 z "},"w":{"ha":1196,"x_min":58,"x_max":1138,"o":"m 310 -6 l 58 718 l 172 718 l 361 142 l 554 721 l 643 721 l 838 142 l 1026 718 l 1138 718 l 885 -6 l 792 -6 l 599 561 l 404 -6 l 310 -6 z "},"x":{"ha":797,"x_min":54,"x_max":743,"o":"m 54 0 l 336 365 l 65 718 l 188 718 l 400 440 l 613 718 l 732 718 l 460 368 l 743 0 l 619 0 l 397 293 l 174 0 l 54 0 z "},"y":{"ha":821,"x_min":47,"x_max":771,"o":"m 231 -226 q 78 -190 153 -226 l 114 -106 q 226 -132 165 -132 q 309 -102 276 -132 q 374 3 342 -72 l 47 718 l 165 718 l 426 119 l 657 718 l 771 718 l 469 -24 q 369 -180 425 -133 q 231 -226 313 -226 z "},"z":{"ha":772,"x_min":78,"x_max":700,"o":"m 78 0 l 78 68 l 554 628 l 94 628 l 94 718 l 700 718 l 700 650 l 222 90 l 700 90 l 700 0 l 78 0 z "},"{":{"ha":671,"x_min":78,"x_max":594,"o":"m 594 -125 l 578 -196 q 339 -99 401 -164 q 276 85 276 -33 q 277 136 276 94 q 278 190 278 178 q 240 315 278 274 q 114 357 203 357 l 78 357 l 78 440 l 114 440 q 241 481 204 440 q 278 607 278 521 q 277 660 278 618 q 276 713 276 703 q 339 896 276 831 q 578 993 401 961 l 594 922 q 478 884 521 903 q 413 838 436 865 q 384 780 390 810 q 378 699 378 750 q 378 647 378 685 q 379 594 379 610 q 342 466 379 511 q 235 399 306 421 q 344 331 308 375 q 379 203 379 286 q 378 150 379 188 q 378 99 378 113 q 417 -47 378 -1 q 594 -125 456 -92 z "},"|":{"ha":421,"x_min":165,"x_max":256,"o":"m 165 -178 l 165 1108 l 256 1108 l 256 -178 l 165 -178 z "},"}":{"ha":671,"x_min":75,"x_max":592,"o":"m 93 -196 l 75 -125 q 219 -72 172 -101 q 280 -6 267 -42 q 293 99 293 31 q 292 150 293 113 q 292 203 292 188 q 328 331 292 286 q 436 399 365 376 q 327 467 363 422 q 292 594 292 511 q 292 647 292 610 q 293 699 293 685 q 287 780 293 750 q 258 838 281 810 q 192 884 235 865 q 75 922 149 903 l 93 993 q 332 896 269 961 q 394 713 394 831 q 394 660 394 703 q 393 607 393 618 q 429 481 393 521 q 556 440 465 440 l 592 440 l 592 357 l 556 357 q 429 317 465 357 q 393 190 393 276 q 394 136 393 178 q 394 85 394 94 q 332 -99 394 -33 q 93 -196 269 -164 z "},"~":{"ha":657,"x_min":101,"x_max":556,"o":"m 167 329 l 101 347 q 153 460 122 426 q 233 494 183 494 q 331 466 265 494 q 419 438 397 438 q 461 452 447 438 q 492 507 475 467 l 556 489 q 505 376 535 410 q 425 342 475 342 q 326 370 392 342 q 239 399 261 399 q 197 384 211 399 q 167 329 183 369 z "}," ":{"ha":417,"x_min":0,"x_max":0,"o":""},"¡":{"ha":376,"x_min":125,"x_max":253,"o":"m 126 0 l 126 79 l 158 697 l 218 697 l 251 79 l 251 0 l 126 0 m 125 826 l 125 972 l 253 972 l 253 826 l 125 826 z "},"¢":{"ha":807,"x_min":81,"x_max":740,"o":"m 347 235 l 451 772 l 446 772 q 263 692 338 772 q 189 496 189 611 l 189 493 q 232 338 189 407 q 347 235 275 268 m 294 -8 l 325 139 q 148 274 215 178 q 81 490 81 371 l 81 493 q 188 758 81 647 q 449 868 294 868 l 467 868 l 488 981 l 578 981 l 553 856 q 736 739 650 829 l 667 667 q 531 760 596 739 l 424 215 q 453 214 433 214 q 674 321 574 214 l 740 258 q 447 118 618 118 q 410 119 422 118 l 385 -8 l 294 -8 z "},"£":{"ha":894,"x_min":93,"x_max":814,"o":"m 93 0 l 93 64 l 210 93 l 210 410 l 93 410 l 93 506 l 210 506 l 210 656 q 297 903 210 815 q 517 986 381 986 q 814 836 699 986 l 729 769 q 635 856 683 826 q 515 885 586 885 q 379 833 432 885 q 319 656 319 772 l 319 506 l 707 506 l 707 410 l 319 410 l 319 97 l 813 97 l 813 0 l 93 0 z "},"¤":{"ha":1000,"x_min":78,"x_max":928,"o":"m 597 -17 q 346 78 451 -17 q 204 329 240 174 l 78 329 l 78 417 l 190 417 q 188 483 188 432 l 188 486 q 193 567 188 535 l 78 567 l 78 653 l 208 653 q 351 896 249 803 q 590 989 454 989 q 925 799 797 989 l 842 739 q 728 854 785 818 q 586 890 671 890 q 425 825 496 890 q 321 653 354 760 l 678 653 l 678 567 l 303 567 q 297 489 297 538 l 297 486 q 300 417 297 461 l 678 417 l 678 329 l 318 329 q 425 148 351 214 q 601 82 499 82 q 737 122 679 82 q 849 242 794 163 l 928 186 q 785 36 863 89 q 597 -17 707 -17 z "},"¥":{"ha":953,"x_min":38,"x_max":915,"o":"m 424 0 l 424 161 l 139 161 l 139 247 l 424 247 l 424 369 l 139 369 l 139 456 l 390 456 l 38 972 l 168 972 l 478 497 l 790 972 l 915 972 l 561 456 l 814 456 l 814 369 l 529 369 l 529 247 l 814 247 l 814 161 l 529 161 l 529 0 l 424 0 z "},"§":{"ha":878,"x_min":86,"x_max":792,"o":"m 538 365 q 647 394 604 365 q 689 461 689 422 l 689 464 q 644 529 689 500 q 492 585 600 558 q 340 607 401 607 q 231 578 274 607 q 189 511 189 550 l 189 508 q 233 443 189 472 q 386 388 278 414 q 538 365 475 365 m 456 -14 q 138 118 267 -14 l 207 185 q 458 78 318 78 q 565 103 529 78 q 601 169 601 129 l 601 172 q 552 241 601 213 q 375 300 503 269 q 152 381 218 336 q 86 497 86 426 l 86 500 q 135 603 86 563 q 269 658 185 644 q 167 799 167 711 l 167 801 q 236 935 167 885 q 422 986 306 986 q 740 854 611 986 l 671 788 q 419 894 560 894 q 313 869 349 894 q 276 803 276 844 l 276 800 q 326 731 276 760 q 503 672 376 701 q 727 590 663 633 q 792 475 792 547 l 792 472 q 742 369 792 411 q 608 314 693 328 q 711 174 711 261 l 711 171 q 642 37 711 88 q 456 -14 572 -14 z "},"¨":{"ha":694,"x_min":163,"x_max":532,"o":"m 163 826 l 163 958 l 288 958 l 288 826 l 163 826 m 407 826 l 407 958 l 532 958 l 532 826 l 407 826 z "},"©":{"ha":1153,"x_min":74,"x_max":1079,"o":"m 582 226 q 398 303 472 226 q 324 492 324 381 l 324 494 q 399 682 324 604 q 585 760 474 760 q 785 676 697 760 l 733 621 q 583 690 661 690 q 453 633 506 690 q 401 496 401 576 l 401 493 q 454 355 401 413 q 585 297 507 297 q 738 367 664 297 l 788 318 q 582 226 699 226 m 575 26 q 901 162 769 26 q 1033 486 1033 297 l 1033 489 q 902 813 1033 679 q 578 946 771 946 q 251 810 383 946 q 119 486 119 675 l 119 483 q 251 160 119 293 q 575 26 382 26 m 575 -17 q 219 130 365 -17 q 74 483 74 276 l 74 486 q 220 840 74 692 q 578 989 367 989 q 933 842 788 989 q 1079 489 1079 696 l 1079 486 q 933 132 1079 281 q 575 -17 786 -17 z "},"ª":{"ha":542,"x_min":81,"x_max":442,"o":"m 246 625 q 331 652 296 625 q 367 722 367 679 l 367 756 q 261 771 324 771 q 185 751 213 771 q 157 697 157 731 l 157 694 q 183 644 157 663 q 246 625 208 625 m 81 401 l 81 467 l 442 467 l 442 401 l 81 401 m 233 567 q 129 600 174 567 q 85 692 85 633 l 85 694 q 132 790 85 756 q 256 824 179 824 q 367 808 317 824 l 367 815 q 258 914 367 914 q 139 883 207 914 l 118 942 q 265 976 199 976 q 394 932 346 976 q 435 815 435 892 l 435 575 l 367 575 l 367 628 q 233 567 315 567 z "},"«":{"ha":764,"x_min":67,"x_max":682,"o":"m 292 57 l 67 354 l 67 365 l 292 661 l 374 615 l 186 361 l 374 104 l 292 57 m 601 57 l 376 354 l 376 365 l 601 661 l 682 615 l 494 361 l 682 104 l 601 57 z "},"®":{"ha":1153,"x_min":74,"x_max":1079,"o":"m 456 506 l 603 506 q 692 529 658 506 q 725 597 725 553 l 725 600 q 694 665 725 640 q 607 689 663 689 l 456 689 l 456 506 m 379 243 l 379 758 l 610 758 q 763 704 708 758 q 804 604 804 667 l 804 601 q 768 503 804 542 q 671 450 732 464 l 831 243 l 736 243 l 588 438 l 585 438 l 456 438 l 456 243 l 379 243 m 575 26 q 901 162 769 26 q 1033 486 1033 297 l 1033 489 q 902 813 1033 679 q 578 946 771 946 q 251 810 383 946 q 119 486 119 675 l 119 483 q 251 160 119 293 q 575 26 382 26 m 575 -17 q 219 130 365 -17 q 74 483 74 276 l 74 486 q 220 840 74 692 q 578 989 367 989 q 933 842 788 989 q 1079 489 1079 696 l 1079 486 q 933 132 1079 281 q 575 -17 786 -17 z "},"¯":{"ha":694,"x_min":128,"x_max":567,"o":"m 128 833 l 128 926 l 567 926 l 567 833 l 128 833 z "},"°":{"ha":636,"x_min":100,"x_max":536,"o":"m 220 669 q 240 649 220 669 q 318 628 260 628 q 416 669 376 628 q 456 767 456 711 l 456 769 q 416 867 456 825 q 318 908 376 908 q 220 867 260 908 q 181 769 181 825 l 181 767 q 220 669 181 711 m 470 619 q 437 588 470 619 q 318 556 404 556 q 166 619 232 556 q 100 767 100 683 l 100 769 q 165 918 100 856 q 318 981 231 981 q 470 918 404 981 q 536 769 536 856 l 536 767 q 470 619 536 683 z "},"±":{"ha":839,"x_min":60,"x_max":758,"o":"m 425 -17 q 60 158 201 -17 l 140 228 q 428 83 256 83 q 585 133 524 83 q 647 264 647 182 l 647 267 q 579 397 647 350 q 388 443 511 443 l 288 443 l 288 538 l 390 538 q 556 586 492 538 q 621 717 621 635 l 621 719 q 564 842 621 794 q 413 889 507 889 q 161 750 265 889 l 81 808 q 415 989 208 989 q 643 915 554 989 q 732 729 732 842 l 732 726 q 563 499 732 564 q 758 267 758 432 l 758 264 q 665 65 758 146 q 425 -17 572 -17 z "},"´":{"ha":694,"x_min":251,"x_max":494,"o":"m 251 826 l 383 1028 l 494 976 l 338 826 l 251 826 z "},"µ":{"ha":1181,"x_min":94,"x_max":1146,"o":"m 317 201 q 372 143 317 201 q 592 85 426 85 q 865 200 757 85 q 972 483 972 315 l 972 486 q 863 771 972 654 q 589 888 754 888 q 316 772 424 888 q 208 489 208 657 l 208 486 q 317 201 208 318 m 985 -140 l 801 31 q 589 -17 706 -17 q 233 130 372 -17 q 94 483 94 276 l 94 486 q 235 841 94 693 q 592 989 375 989 q 947 842 808 989 q 1086 489 1086 696 q 1086 486 1088 488 q 1040 268 1086 369 q 907 96 993 167 l 1146 -132 l 1146 -140 l 985 -140 z "},"¶":{"ha":708,"x_min":67,"x_max":581,"o":"m 469 0 l 469 367 l 454 367 q 176 447 285 367 q 67 668 67 526 l 67 671 q 168 891 67 810 q 433 972 269 972 l 581 972 l 581 0 l 469 0 z "},"·":{"ha":340,"x_min":107,"x_max":235,"o":"m 107 344 l 107 490 l 235 490 l 235 344 l 107 344 z "},"¸":{"ha":694,"x_min":208,"x_max":418,"o":"m 313 -215 l 208 -168 l 333 14 l 418 14 l 313 -215 z "},"º":{"ha":542,"x_min":67,"x_max":475,"o":"m 178 672 q 197 652 178 672 q 272 632 215 632 q 365 672 329 632 q 400 769 400 711 l 400 772 q 363 872 400 831 q 269 913 325 913 q 177 873 213 913 q 142 775 142 833 l 142 772 q 178 672 142 713 m 71 401 l 71 467 l 471 467 l 471 401 l 71 401 m 269 565 q 125 625 183 565 q 67 769 67 685 l 67 772 q 126 919 67 858 q 272 979 185 979 q 417 919 358 979 q 475 775 475 860 l 475 772 q 416 626 475 686 q 269 565 357 565 z "},"»":{"ha":764,"x_min":82,"x_max":697,"o":"m 163 57 l 82 103 l 269 358 l 82 614 l 163 661 l 388 365 l 388 354 l 163 57 m 472 57 l 390 103 l 578 358 l 390 614 l 472 661 l 697 365 l 697 354 l 472 57 z "},"¿":{"ha":746,"x_min":67,"x_max":703,"o":"m 378 -12 q 152 65 238 -12 q 67 263 67 142 l 67 265 q 147 459 67 389 q 356 547 228 529 l 368 697 l 439 697 l 461 472 l 454 465 q 249 410 319 463 q 178 269 178 358 l 178 267 q 233 138 178 189 q 381 86 289 86 q 632 217 521 86 l 703 149 q 378 -12 569 -12 m 342 826 l 342 972 l 469 972 l 469 826 l 342 826 z "},"À":{"ha":1097,"x_min":54,"x_max":1043,"o":"m 504 1058 l 347 1208 l 458 1260 l 590 1058 l 504 1058 m 325 356 l 768 356 l 547 851 l 325 356 m 54 0 l 497 979 l 600 979 l 1043 0 l 925 0 l 811 257 l 282 257 l 167 0 l 54 0 z "},"Á":{"ha":1097,"x_min":54,"x_max":1043,"o":"m 507 1058 l 639 1260 l 750 1208 l 593 1058 l 507 1058 m 325 356 l 768 356 l 547 851 l 325 356 m 54 0 l 497 979 l 600 979 l 1043 0 l 925 0 l 811 257 l 282 257 l 167 0 l 54 0 z "},"Â":{"ha":1097,"x_min":54,"x_max":1043,"o":"m 354 1054 l 501 1236 l 596 1236 l 743 1054 l 651 1054 l 547 1147 l 443 1054 l 354 1054 m 325 356 l 768 356 l 547 851 l 325 356 m 54 0 l 497 979 l 600 979 l 1043 0 l 925 0 l 811 257 l 282 257 l 167 0 l 54 0 z "},"Ã":{"ha":1097,"x_min":54,"x_max":1043,"o":"m 386 1046 l 321 1064 q 372 1176 342 1143 q 453 1210 403 1210 q 551 1182 486 1210 q 639 1154 617 1154 q 681 1169 667 1154 q 711 1222 694 1183 l 776 1204 q 725 1092 756 1125 q 644 1058 694 1058 q 546 1086 611 1058 q 458 1114 481 1114 q 417 1099 431 1114 q 386 1046 403 1085 m 325 356 l 768 356 l 547 851 l 325 356 m 54 0 l 497 979 l 600 979 l 1043 0 l 925 0 l 811 257 l 282 257 l 167 0 l 54 0 z "},"Ä":{"ha":1097,"x_min":54,"x_max":1043,"o":"m 364 1058 l 364 1190 l 489 1190 l 489 1058 l 364 1058 m 608 1058 l 608 1190 l 733 1190 l 733 1058 l 608 1058 m 325 356 l 768 356 l 547 851 l 325 356 m 54 0 l 497 979 l 600 979 l 1043 0 l 925 0 l 811 257 l 282 257 l 167 0 l 54 0 z "},"Å":{"ha":1097,"x_min":54,"x_max":1043,"o":"m 325 356 l 768 356 l 547 851 l 325 356 m 488 1004 q 501 992 488 1004 q 549 979 514 979 q 609 1004 583 979 q 635 1064 635 1029 l 635 1067 q 610 1126 635 1101 q 549 1151 585 1151 q 488 1126 513 1151 q 463 1067 463 1101 l 463 1064 q 488 1004 463 1029 m 54 0 l 481 944 q 404 1064 404 985 l 404 1067 q 448 1163 404 1122 q 549 1204 492 1204 q 649 1163 606 1204 q 693 1067 693 1122 l 693 1064 q 617 944 693 985 l 1043 0 l 925 0 l 811 257 l 282 257 l 167 0 l 54 0 z "},"Æ":{"ha":1451,"x_min":24,"x_max":1368,"o":"m 346 356 l 682 356 l 682 875 l 649 875 l 346 356 m 24 0 l 594 972 l 1361 972 l 1361 872 l 793 872 l 793 540 l 1299 540 l 1299 440 l 793 440 l 793 100 l 1368 100 l 1368 0 l 682 0 l 682 257 l 290 257 l 139 0 l 24 0 z "},"Ç":{"ha":1025,"x_min":94,"x_max":971,"o":"m 513 -215 l 408 -168 l 515 -12 q 213 151 331 13 q 94 483 94 290 l 94 486 q 235 842 94 696 q 586 989 375 989 q 799 950 711 989 q 965 835 888 911 l 890 754 q 749 853 821 819 q 585 888 678 888 q 316 772 424 888 q 208 489 208 657 l 208 486 q 316 201 208 317 q 585 85 424 85 q 751 119 679 85 q 899 225 824 154 l 971 154 q 604 -17 814 -8 l 513 -215 z "},"È":{"ha":931,"x_min":138,"x_max":847,"o":"m 472 1058 l 315 1208 l 426 1260 l 558 1058 l 472 1058 m 138 0 l 138 972 l 840 972 l 840 872 l 247 872 l 247 540 l 778 540 l 778 440 l 247 440 l 247 100 l 847 100 l 847 0 l 138 0 z "},"É":{"ha":931,"x_min":138,"x_max":847,"o":"m 413 1058 l 544 1260 l 656 1208 l 499 1058 l 413 1058 m 138 0 l 138 972 l 840 972 l 840 872 l 247 872 l 247 540 l 778 540 l 778 440 l 247 440 l 247 100 l 847 100 l 847 0 l 138 0 z "},"Ê":{"ha":931,"x_min":138,"x_max":847,"o":"m 289 1058 l 436 1240 l 531 1240 l 678 1058 l 586 1058 l 482 1151 l 378 1058 l 289 1058 m 138 0 l 138 972 l 840 972 l 840 872 l 247 872 l 247 540 l 778 540 l 778 440 l 247 440 l 247 100 l 847 100 l 847 0 l 138 0 z "},"Ë":{"ha":931,"x_min":138,"x_max":847,"o":"m 299 1058 l 299 1190 l 424 1190 l 424 1058 l 299 1058 m 543 1058 l 543 1190 l 668 1190 l 668 1058 l 543 1058 m 138 0 l 138 972 l 840 972 l 840 872 l 247 872 l 247 540 l 778 540 l 778 440 l 247 440 l 247 100 l 847 100 l 847 0 l 138 0 z "},"Ì":{"ha":404,"x_min":3,"x_max":257,"o":"m 160 1058 l 3 1208 l 114 1260 l 246 1058 l 160 1058 m 147 0 l 147 972 l 257 972 l 257 0 l 147 0 z "},"Í":{"ha":404,"x_min":147,"x_max":401,"o":"m 158 1058 l 290 1260 l 401 1208 l 244 1058 l 158 1058 m 147 0 l 147 972 l 257 972 l 257 0 l 147 0 z "},"Î":{"ha":404,"x_min":8,"x_max":397,"o":"m 8 1058 l 156 1240 l 250 1240 l 397 1058 l 306 1058 l 201 1151 l 97 1058 l 8 1058 m 147 0 l 147 972 l 257 972 l 257 0 l 147 0 z "},"Ï":{"ha":404,"x_min":18,"x_max":388,"o":"m 18 1058 l 18 1190 l 143 1190 l 143 1058 l 18 1058 m 263 1058 l 263 1190 l 388 1190 l 388 1058 l 263 1058 m 147 0 l 147 972 l 257 972 l 257 0 l 147 0 z "},"Ð":{"ha":1128,"x_min":75,"x_max":1033,"o":"m 289 101 l 517 101 q 809 210 699 101 q 919 483 919 318 l 919 486 q 808 761 919 651 q 517 871 697 871 l 289 871 l 289 539 l 581 539 l 581 439 l 289 439 l 289 101 m 179 0 l 179 439 l 75 439 l 75 539 l 179 539 l 179 972 l 517 972 q 888 834 743 972 q 1033 489 1033 696 l 1033 486 q 888 139 1033 278 q 517 0 743 0 l 179 0 z "},"Ñ":{"ha":1097,"x_min":138,"x_max":960,"o":"m 386 1046 l 321 1064 q 372 1176 342 1143 q 453 1210 403 1210 q 551 1182 486 1210 q 639 1154 617 1154 q 681 1169 667 1154 q 711 1222 694 1183 l 776 1204 q 725 1092 756 1125 q 644 1058 694 1058 q 546 1086 611 1058 q 458 1114 481 1114 q 417 1099 431 1114 q 386 1046 403 1085 m 138 0 l 138 972 l 240 972 l 853 193 l 853 972 l 960 972 l 960 0 l 872 0 l 244 797 l 244 0 l 138 0 z "},"Ò":{"ha":1181,"x_min":94,"x_max":1086,"o":"m 540 1058 l 383 1208 l 494 1260 l 626 1058 l 540 1058 m 317 201 q 372 143 317 201 q 592 85 426 85 q 865 200 757 85 q 972 483 972 315 l 972 486 q 863 771 972 654 q 589 888 754 888 q 316 772 424 888 q 208 489 208 657 l 208 486 q 317 201 208 318 m 946 131 q 876 57 946 131 q 589 -17 806 -17 q 233 130 372 -17 q 94 483 94 276 l 94 486 q 235 841 94 693 q 592 989 375 989 q 947 842 808 989 q 1086 489 1086 696 q 1086 486 1088 488 q 946 131 1086 279 z "},"Ó":{"ha":1181,"x_min":94,"x_max":1086,"o":"m 554 1058 l 686 1260 l 797 1208 l 640 1058 l 554 1058 m 317 201 q 372 143 317 201 q 592 85 426 85 q 865 200 757 85 q 972 483 972 315 l 972 486 q 863 771 972 654 q 589 888 754 888 q 316 772 424 888 q 208 489 208 657 l 208 486 q 317 201 208 318 m 946 131 q 876 57 946 131 q 589 -17 806 -17 q 233 130 372 -17 q 94 483 94 276 l 94 486 q 235 841 94 693 q 592 989 375 989 q 947 842 808 989 q 1086 489 1086 696 q 1086 486 1088 488 q 946 131 1086 279 z "},"Ô":{"ha":1181,"x_min":94,"x_max":1086,"o":"m 396 1058 l 543 1240 l 638 1240 l 785 1058 l 693 1058 l 589 1151 l 485 1058 l 396 1058 m 317 201 q 372 143 317 201 q 592 85 426 85 q 865 200 757 85 q 972 483 972 315 l 972 486 q 863 771 972 654 q 589 888 754 888 q 316 772 424 888 q 208 489 208 657 l 208 486 q 317 201 208 318 m 946 131 q 876 57 946 131 q 589 -17 806 -17 q 233 130 372 -17 q 94 483 94 276 l 94 486 q 235 841 94 693 q 592 989 375 989 q 947 842 808 989 q 1086 489 1086 696 q 1086 486 1088 488 q 946 131 1086 279 z "},"Õ":{"ha":1181,"x_min":94,"x_max":1086,"o":"m 428 1046 l 363 1064 q 414 1176 383 1143 q 494 1210 444 1210 q 593 1182 528 1210 q 681 1154 658 1154 q 722 1169 708 1154 q 753 1222 736 1183 l 818 1204 q 767 1092 797 1125 q 686 1058 736 1058 q 588 1086 653 1058 q 500 1114 522 1114 q 458 1099 472 1114 q 428 1046 444 1085 m 317 201 q 372 143 317 201 q 592 85 426 85 q 865 200 757 85 q 972 483 972 315 l 972 486 q 863 771 972 654 q 589 888 754 888 q 316 772 424 888 q 208 489 208 657 l 208 486 q 317 201 208 318 m 946 131 q 876 57 946 131 q 589 -17 806 -17 q 233 130 372 -17 q 94 483 94 276 l 94 486 q 235 841 94 693 q 592 989 375 989 q 947 842 808 989 q 1086 489 1086 696 q 1086 486 1088 488 q 946 131 1086 279 z "},"Ö":{"ha":1181,"x_min":94,"x_max":1086,"o":"m 406 1058 l 406 1190 l 531 1190 l 531 1058 l 406 1058 m 650 1058 l 650 1190 l 775 1190 l 775 1058 l 650 1058 m 317 201 q 372 143 317 201 q 592 85 426 85 q 865 200 757 85 q 972 483 972 315 l 972 486 q 863 771 972 654 q 589 888 754 888 q 316 772 424 888 q 208 489 208 657 l 208 486 q 317 201 208 318 m 946 131 q 876 57 946 131 q 589 -17 806 -17 q 233 130 372 -17 q 94 483 94 276 l 94 486 q 235 841 94 693 q 592 989 375 989 q 947 842 808 989 q 1086 489 1086 696 q 1086 486 1088 488 q 946 131 1086 279 z "},"Ø":{"ha":1181,"x_min":83,"x_max":1097,"o":"m 592 83 q 865 199 757 83 q 972 483 972 315 l 972 486 q 885 746 972 635 l 356 168 q 592 83 453 83 m 296 226 l 825 804 q 589 889 728 889 q 316 773 424 889 q 208 489 208 657 l 208 486 q 296 226 208 338 m 589 -17 q 285 85 413 -17 l 199 -7 l 83 -7 l 221 143 q 94 483 94 282 l 94 486 q 235 841 94 693 q 592 989 375 989 q 896 886 767 989 l 982 979 l 1097 979 l 960 829 q 1086 489 1086 690 q 1086 486 1088 488 q 946 131 1086 279 q 589 -17 806 -17 z "},"Ù":{"ha":1054,"x_min":122,"x_max":932,"o":"m 492 1051 l 335 1201 l 446 1253 l 578 1051 l 492 1051 m 526 -15 q 232 95 342 -15 q 122 407 122 206 l 122 972 l 232 972 l 232 414 q 310 172 232 257 q 529 86 388 86 q 744 168 667 86 q 822 407 822 250 l 822 972 l 932 972 l 932 415 q 823 96 932 207 q 526 -15 714 -15 z "},"Ú":{"ha":1054,"x_min":122,"x_max":932,"o":"m 476 1051 l 608 1253 l 719 1201 l 563 1051 l 476 1051 m 526 -15 q 232 95 342 -15 q 122 407 122 206 l 122 972 l 232 972 l 232 414 q 310 172 232 257 q 529 86 388 86 q 744 168 667 86 q 822 407 822 250 l 822 972 l 932 972 l 932 415 q 823 96 932 207 q 526 -15 714 -15 z "},"Û":{"ha":1054,"x_min":122,"x_max":932,"o":"m 332 1054 l 479 1236 l 574 1236 l 721 1054 l 629 1054 l 525 1147 l 421 1054 l 332 1054 m 526 -15 q 232 95 342 -15 q 122 407 122 206 l 122 972 l 232 972 l 232 414 q 310 172 232 257 q 529 86 388 86 q 744 168 667 86 q 822 407 822 250 l 822 972 l 932 972 l 932 415 q 823 96 932 207 q 526 -15 714 -15 z "},"Ü":{"ha":1054,"x_min":122,"x_max":932,"o":"m 342 1054 l 342 1186 l 467 1186 l 467 1054 l 342 1054 m 586 1054 l 586 1186 l 711 1186 l 711 1054 l 586 1054 m 526 -15 q 232 95 342 -15 q 122 407 122 206 l 122 972 l 232 972 l 232 414 q 310 172 232 257 q 529 86 388 86 q 744 168 667 86 q 822 407 822 250 l 822 972 l 932 972 l 932 415 q 823 96 932 207 q 526 -15 714 -15 z "},"Ý":{"ha":994,"x_min":38,"x_max":957,"o":"m 457 1051 l 589 1253 l 700 1201 l 543 1051 l 457 1051 m 442 0 l 442 385 l 38 972 l 171 972 l 499 486 l 829 972 l 957 972 l 553 386 l 553 0 l 442 0 z "},"Þ":{"ha":935,"x_min":138,"x_max":865,"o":"m 247 275 l 488 275 q 681 335 608 275 q 754 490 754 394 l 754 493 q 684 649 754 594 q 493 704 614 704 l 247 704 l 247 275 m 138 0 l 138 972 l 247 972 l 247 806 l 501 806 q 766 722 667 806 q 865 497 865 639 l 865 494 q 756 259 865 343 q 483 175 647 175 l 247 175 l 247 0 l 138 0 z "},"ß":{"ha":861,"x_min":119,"x_max":781,"o":"m 406 -3 l 406 83 q 601 133 532 86 q 671 267 671 181 l 671 269 q 601 399 671 351 q 406 460 531 447 l 406 539 q 611 764 611 617 l 611 767 q 561 884 611 839 q 429 929 511 929 q 283 866 339 929 q 226 697 226 803 l 226 0 l 119 0 l 119 696 q 205 933 119 843 q 435 1024 290 1024 q 642 952 563 1024 q 721 774 721 881 l 721 771 q 665 616 721 681 q 528 517 610 551 q 710 430 639 490 q 781 269 781 369 l 781 267 q 679 67 781 139 q 406 -3 578 -6 z "},"à":{"ha":804,"x_min":65,"x_max":697,"o":"m 363 826 l 206 976 l 317 1028 l 449 826 l 363 826 m 354 71 q 524 125 456 71 q 593 264 593 179 l 593 331 q 383 361 485 361 q 229 322 285 361 q 174 217 174 283 l 174 214 q 226 110 174 149 q 354 71 279 71 m 333 -15 q 144 44 224 -15 q 65 208 65 103 l 65 211 q 149 385 65 324 q 372 446 232 446 q 592 415 481 446 l 592 438 q 536 582 592 532 q 379 632 481 632 q 161 581 268 632 l 129 668 q 390 729 258 729 q 622 650 543 729 q 697 439 697 575 l 697 0 l 592 0 l 592 107 q 333 -15 499 -15 z "},"á":{"ha":804,"x_min":65,"x_max":697,"o":"m 344 826 l 476 1028 l 588 976 l 431 826 l 344 826 m 354 71 q 524 125 456 71 q 593 264 593 179 l 593 331 q 383 361 485 361 q 229 322 285 361 q 174 217 174 283 l 174 214 q 226 110 174 149 q 354 71 279 71 m 333 -15 q 144 44 224 -15 q 65 208 65 103 l 65 211 q 149 385 65 324 q 372 446 232 446 q 592 415 481 446 l 592 438 q 536 582 592 532 q 379 632 481 632 q 161 581 268 632 l 129 668 q 390 729 258 729 q 622 650 543 729 q 697 439 697 575 l 697 0 l 592 0 l 592 107 q 333 -15 499 -15 z "},"â":{"ha":804,"x_min":65,"x_max":697,"o":"m 210 826 l 357 1008 l 451 1008 l 599 826 l 507 826 l 403 919 l 299 826 l 210 826 m 354 71 q 524 125 456 71 q 593 264 593 179 l 593 331 q 383 361 485 361 q 229 322 285 361 q 174 217 174 283 l 174 214 q 226 110 174 149 q 354 71 279 71 m 333 -15 q 144 44 224 -15 q 65 208 65 103 l 65 211 q 149 385 65 324 q 372 446 232 446 q 592 415 481 446 l 592 438 q 536 582 592 532 q 379 632 481 632 q 161 581 268 632 l 129 668 q 390 729 258 729 q 622 650 543 729 q 697 439 697 575 l 697 0 l 592 0 l 592 107 q 333 -15 499 -15 z "},"ã":{"ha":804,"x_min":65,"x_max":697,"o":"m 243 814 l 178 832 q 229 944 199 911 q 310 978 260 978 q 408 950 343 978 q 496 922 474 922 q 537 937 522 922 q 568 990 551 951 l 633 972 q 582 860 613 893 q 501 826 551 826 q 403 854 468 826 q 315 882 338 882 q 274 867 289 882 q 243 814 260 853 m 354 71 q 524 125 456 71 q 593 264 593 179 l 593 331 q 383 361 485 361 q 229 322 285 361 q 174 217 174 283 l 174 214 q 226 110 174 149 q 354 71 279 71 m 333 -15 q 144 44 224 -15 q 65 208 65 103 l 65 211 q 149 385 65 324 q 372 446 232 446 q 592 415 481 446 l 592 438 q 536 582 592 532 q 379 632 481 632 q 161 581 268 632 l 129 668 q 390 729 258 729 q 622 650 543 729 q 697 439 697 575 l 697 0 l 592 0 l 592 107 q 333 -15 499 -15 z "},"ä":{"ha":804,"x_min":65,"x_max":697,"o":"m 219 826 l 219 958 l 344 958 l 344 826 l 219 826 m 464 826 l 464 958 l 589 958 l 589 826 l 464 826 m 354 71 q 524 125 456 71 q 593 264 593 179 l 593 331 q 383 361 485 361 q 229 322 285 361 q 174 217 174 283 l 174 214 q 226 110 174 149 q 354 71 279 71 m 333 -15 q 144 44 224 -15 q 65 208 65 103 l 65 211 q 149 385 65 324 q 372 446 232 446 q 592 415 481 446 l 592 438 q 536 582 592 532 q 379 632 481 632 q 161 581 268 632 l 129 668 q 390 729 258 729 q 622 650 543 729 q 697 439 697 575 l 697 0 l 592 0 l 592 107 q 333 -15 499 -15 z "},"å":{"ha":804,"x_min":65,"x_max":697,"o":"m 344 901 q 357 889 344 901 q 404 876 369 876 q 465 901 439 876 q 490 961 490 926 l 490 964 q 465 1024 490 999 q 404 1049 440 1049 q 343 1024 368 1049 q 318 964 318 999 l 318 961 q 344 901 318 926 m 505 865 q 483 844 505 865 q 404 824 461 824 q 303 865 347 824 q 260 961 260 906 l 260 964 q 303 1060 260 1019 q 404 1101 347 1101 q 505 1060 461 1101 q 549 964 549 1019 l 549 961 q 505 865 549 906 m 354 71 q 524 125 456 71 q 593 264 593 179 l 593 331 q 383 361 485 361 q 229 322 285 361 q 174 217 174 283 l 174 214 q 226 110 174 149 q 354 71 279 71 m 333 -15 q 144 44 224 -15 q 65 208 65 103 l 65 211 q 149 385 65 324 q 372 446 232 446 q 592 415 481 446 l 592 438 q 536 582 592 532 q 379 632 481 632 q 161 581 268 632 l 129 668 q 390 729 258 729 q 622 650 543 729 q 697 439 697 575 l 697 0 l 592 0 l 592 107 q 333 -15 499 -15 z "},"æ":{"ha":1324,"x_min":65,"x_max":1256,"o":"m 349 71 q 492 103 436 71 q 607 199 549 135 q 578 333 582 261 q 378 361 479 361 q 228 322 283 361 q 174 217 174 283 l 174 214 q 226 110 174 149 q 349 71 278 71 m 685 401 l 1147 401 q 1078 574 1139 504 q 918 643 1018 643 q 761 575 826 643 q 685 401 696 507 m 328 -15 q 144 44 224 -15 q 65 208 65 103 l 65 211 q 148 385 65 324 q 367 446 231 446 q 579 415 460 446 l 579 438 q 525 583 579 533 q 374 632 471 632 q 161 581 268 632 l 129 668 q 385 729 258 729 q 647 574 592 729 q 763 690 690 647 q 922 733 836 733 q 1166 625 1076 733 q 1256 353 1256 517 q 1254 315 1256 332 l 685 315 q 767 141 696 206 q 938 76 839 76 q 1164 178 1065 76 l 1231 118 q 935 -17 1113 -17 q 774 22 849 -17 q 650 128 700 60 q 501 25 588 65 q 328 -15 414 -15 z "},"ç":{"ha":793,"x_min":75,"x_max":736,"o":"m 372 -215 l 268 -168 l 376 -10 q 160 116 246 13 q 75 356 75 219 l 75 358 q 181 624 75 514 q 443 733 286 733 q 731 606 610 733 l 660 531 q 442 639 557 639 q 258 558 332 639 q 185 361 185 478 l 185 358 q 260 160 185 242 q 449 79 336 79 q 668 186 568 79 l 736 122 q 464 -17 618 -8 l 372 -215 z "},"è":{"ha":822,"x_min":75,"x_max":754,"o":"m 383 826 l 226 976 l 338 1028 l 469 826 l 383 826 m 183 401 l 646 401 q 577 574 638 504 q 417 643 517 643 q 260 575 325 643 q 183 401 194 507 m 753 315 l 183 315 q 266 141 194 206 q 436 76 338 76 q 663 178 564 76 l 729 118 q 433 -17 611 -17 q 179 89 283 -17 q 75 358 75 194 q 173 625 75 517 q 419 733 271 733 q 664 625 574 733 q 754 353 754 517 q 753 315 754 332 z "},"é":{"ha":822,"x_min":75,"x_max":754,"o":"m 353 826 l 485 1028 l 596 976 l 439 826 l 353 826 m 183 401 l 646 401 q 577 574 638 504 q 417 643 517 643 q 260 575 325 643 q 183 401 194 507 m 753 315 l 183 315 q 266 141 194 206 q 436 76 338 76 q 663 178 564 76 l 729 118 q 433 -17 611 -17 q 179 89 283 -17 q 75 358 75 194 q 173 625 75 517 q 419 733 271 733 q 664 625 574 733 q 754 353 754 517 q 753 315 754 332 z "},"ê":{"ha":822,"x_min":75,"x_max":754,"o":"m 221 826 l 368 1008 l 463 1008 l 610 826 l 518 826 l 414 919 l 310 826 l 221 826 m 183 401 l 646 401 q 577 574 638 504 q 417 643 517 643 q 260 575 325 643 q 183 401 194 507 m 753 315 l 183 315 q 266 141 194 206 q 436 76 338 76 q 663 178 564 76 l 729 118 q 433 -17 611 -17 q 179 89 283 -17 q 75 358 75 194 q 173 625 75 517 q 419 733 271 733 q 664 625 574 733 q 754 353 754 517 q 753 315 754 332 z "},"ë":{"ha":822,"x_min":75,"x_max":754,"o":"m 231 826 l 231 958 l 356 958 l 356 826 l 231 826 m 475 826 l 475 958 l 600 958 l 600 826 l 475 826 m 183 401 l 646 401 q 577 574 638 504 q 417 643 517 643 q 260 575 325 643 q 183 401 194 507 m 753 315 l 183 315 q 266 141 194 206 q 436 76 338 76 q 663 178 564 76 l 729 118 q 433 -17 611 -17 q 179 89 283 -17 q 75 358 75 194 q 173 625 75 517 q 419 733 271 733 q 664 625 574 733 q 754 353 754 517 q 753 315 754 332 z "},"ì":{"ha":365,"x_min":-15,"x_max":236,"o":"m 142 826 l -15 976 l 96 1028 l 228 826 l 142 826 m 129 0 l 129 718 l 236 718 l 236 0 l 129 0 z "},"í":{"ha":365,"x_min":129,"x_max":382,"o":"m 139 826 l 271 1028 l 382 976 l 225 826 l 139 826 m 129 0 l 129 718 l 236 718 l 236 0 l 129 0 z "},"î":{"ha":365,"x_min":-12,"x_max":376,"o":"m -12 826 l 135 1008 l 229 1008 l 376 826 l 285 826 l 181 919 l 76 826 l -12 826 m 129 0 l 129 718 l 236 718 l 236 0 l 129 0 z "},"ï":{"ha":365,"x_min":-3,"x_max":367,"o":"m -3 826 l -3 958 l 122 958 l 122 826 l -3 826 m 242 826 l 242 958 l 367 958 l 367 826 l 242 826 m 129 0 l 129 718 l 236 718 l 236 0 l 129 0 z "},"ð":{"ha":879,"x_min":75,"x_max":803,"o":"m 440 78 q 622 154 551 78 q 693 338 693 231 l 693 340 q 617 517 693 443 q 429 590 540 590 q 251 518 319 590 q 183 339 183 446 l 183 336 q 257 156 183 233 q 440 78 331 78 m 433 -17 q 178 88 281 -17 q 75 340 75 193 l 75 343 q 171 582 75 489 q 404 675 267 675 q 629 599 521 675 l 447 854 l 269 767 l 219 832 l 401 917 l 332 1014 l 460 1014 l 496 960 l 633 1026 l 682 961 l 540 896 l 681 689 q 803 351 803 514 l 803 349 q 701 90 803 197 q 433 -17 599 -17 z "},"ñ":{"ha":856,"x_min":119,"x_max":747,"o":"m 271 814 l 206 832 q 257 944 226 911 q 338 978 288 978 q 436 950 371 978 q 524 922 501 922 q 565 937 550 922 q 596 990 579 951 l 661 972 q 610 860 640 893 q 529 826 579 826 q 431 854 496 826 q 343 882 365 882 q 302 867 317 882 q 271 814 288 853 m 119 0 l 119 718 l 226 718 l 226 593 q 472 733 314 733 q 674 654 600 733 q 747 446 747 575 l 747 0 l 640 0 l 640 419 q 588 578 640 521 q 442 636 536 636 q 288 574 349 636 q 226 411 226 511 l 226 0 l 119 0 z "},"ò":{"ha":897,"x_min":75,"x_max":824,"o":"m 406 826 l 249 976 l 360 1028 l 492 826 l 406 826 m 450 79 q 639 160 564 79 q 714 356 714 240 l 714 358 q 637 557 714 475 q 447 639 560 639 q 259 558 333 639 q 185 361 185 476 l 185 358 q 261 160 185 242 q 450 79 338 79 m 447 -17 q 181 92 288 -17 q 75 356 75 201 l 75 358 q 182 624 75 514 q 450 733 289 733 q 717 624 610 733 q 824 361 824 515 l 824 358 q 716 93 824 203 q 447 -17 608 -17 z "},"ó":{"ha":897,"x_min":75,"x_max":824,"o":"m 407 826 l 539 1028 l 650 976 l 493 826 l 407 826 m 450 79 q 639 160 564 79 q 714 356 714 240 l 714 358 q 637 557 714 475 q 447 639 560 639 q 259 558 333 639 q 185 361 185 476 l 185 358 q 261 160 185 242 q 450 79 338 79 m 447 -17 q 181 92 288 -17 q 75 356 75 201 l 75 358 q 182 624 75 514 q 450 733 289 733 q 717 624 610 733 q 824 361 824 515 l 824 358 q 716 93 824 203 q 447 -17 608 -17 z "},"ô":{"ha":897,"x_min":75,"x_max":824,"o":"m 254 826 l 401 1008 l 496 1008 l 643 826 l 551 826 l 447 919 l 343 826 l 254 826 m 450 79 q 639 160 564 79 q 714 356 714 240 l 714 358 q 637 557 714 475 q 447 639 560 639 q 259 558 333 639 q 185 361 185 476 l 185 358 q 261 160 185 242 q 450 79 338 79 m 447 -17 q 181 92 288 -17 q 75 356 75 201 l 75 358 q 182 624 75 514 q 450 733 289 733 q 717 624 610 733 q 824 361 824 515 l 824 358 q 716 93 824 203 q 447 -17 608 -17 z "},"õ":{"ha":897,"x_min":75,"x_max":824,"o":"m 286 814 l 221 832 q 272 944 242 911 q 353 978 303 978 q 451 950 386 978 q 539 922 517 922 q 581 937 567 922 q 611 990 594 951 l 676 972 q 625 860 656 893 q 544 826 594 826 q 446 854 511 826 q 358 882 381 882 q 317 867 331 882 q 286 814 303 853 m 450 79 q 639 160 564 79 q 714 356 714 240 l 714 358 q 637 557 714 475 q 447 639 560 639 q 259 558 333 639 q 185 361 185 476 l 185 358 q 261 160 185 242 q 450 79 338 79 m 447 -17 q 181 92 288 -17 q 75 356 75 201 l 75 358 q 182 624 75 514 q 450 733 289 733 q 717 624 610 733 q 824 361 824 515 l 824 358 q 716 93 824 203 q 447 -17 608 -17 z "},"ö":{"ha":897,"x_min":75,"x_max":824,"o":"m 264 826 l 264 958 l 389 958 l 389 826 l 264 826 m 508 826 l 508 958 l 633 958 l 633 826 l 508 826 m 450 79 q 639 160 564 79 q 714 356 714 240 l 714 358 q 637 557 714 475 q 447 639 560 639 q 259 558 333 639 q 185 361 185 476 l 185 358 q 261 160 185 242 q 450 79 338 79 m 447 -17 q 181 92 288 -17 q 75 356 75 201 l 75 358 q 182 624 75 514 q 450 733 289 733 q 717 624 610 733 q 824 361 824 515 l 824 358 q 716 93 824 203 q 447 -17 608 -17 z "},"ø":{"ha":897,"x_min":54,"x_max":844,"o":"m 450 78 q 640 159 565 78 q 715 356 715 240 l 715 358 q 661 528 715 453 l 290 135 q 450 78 356 78 m 236 189 l 608 582 q 447 640 539 640 q 258 558 333 640 q 183 361 183 476 l 183 358 q 236 189 183 265 m 447 -17 q 224 57 322 -17 l 161 -7 l 54 -7 l 164 111 q 75 356 75 215 l 75 358 q 182 624 75 514 q 450 733 289 733 q 674 658 582 733 l 736 726 l 844 726 l 794 674 q 733 607 740 617 q 824 361 824 503 l 824 358 q 716 93 824 203 q 447 -17 608 -17 z "},"ù":{"ha":856,"x_min":108,"x_max":735,"o":"m 394 821 l 238 971 l 349 1022 l 481 821 l 394 821 m 383 -15 q 182 64 256 -15 q 108 272 108 143 l 108 718 l 215 718 l 215 299 q 267 140 215 197 q 414 82 319 82 q 568 144 507 82 q 629 307 629 207 l 629 718 l 735 718 l 735 0 l 629 0 l 629 125 q 383 -15 542 -15 z "},"ú":{"ha":856,"x_min":108,"x_max":735,"o":"m 369 821 l 501 1022 l 613 971 l 456 821 l 369 821 m 383 -15 q 182 64 256 -15 q 108 272 108 143 l 108 718 l 215 718 l 215 299 q 267 140 215 197 q 414 82 319 82 q 568 144 507 82 q 629 307 629 207 l 629 718 l 735 718 l 735 0 l 629 0 l 629 125 q 383 -15 542 -15 z "},"û":{"ha":856,"x_min":108,"x_max":735,"o":"m 235 826 l 382 1008 l 476 1008 l 624 826 l 532 826 l 428 919 l 324 826 l 235 826 m 383 -15 q 182 64 256 -15 q 108 272 108 143 l 108 718 l 215 718 l 215 299 q 267 140 215 197 q 414 82 319 82 q 568 144 507 82 q 629 307 629 207 l 629 718 l 735 718 l 735 0 l 629 0 l 629 125 q 383 -15 542 -15 z "},"ü":{"ha":856,"x_min":108,"x_max":735,"o":"m 244 826 l 244 958 l 369 958 l 369 826 l 244 826 m 489 826 l 489 958 l 614 958 l 614 826 l 489 826 m 383 -15 q 182 64 256 -15 q 108 272 108 143 l 108 718 l 215 718 l 215 299 q 267 140 215 197 q 414 82 319 82 q 568 144 507 82 q 629 307 629 207 l 629 718 l 735 718 l 735 0 l 629 0 l 629 125 q 383 -15 542 -15 z "},"ý":{"ha":821,"x_min":47,"x_max":771,"o":"m 371 821 l 503 1022 l 614 971 l 457 821 l 371 821 m 231 -226 q 78 -190 153 -226 l 114 -106 q 226 -132 165 -132 q 309 -102 276 -132 q 374 3 342 -72 l 47 718 l 165 718 l 426 119 l 657 718 l 771 718 l 469 -24 q 369 -180 425 -133 q 231 -226 313 -226 z "},"þ":{"ha":922,"x_min":119,"x_max":844,"o":"m 482 81 q 663 156 590 81 q 735 357 735 231 l 735 360 q 662 561 735 485 q 482 638 589 638 q 301 558 379 638 q 222 361 222 479 l 222 358 q 300 159 222 238 q 482 81 378 81 m 119 -222 l 119 1014 l 226 1014 l 226 574 q 501 733 339 733 q 742 632 639 733 q 844 361 844 531 l 844 358 q 742 88 844 190 q 501 -15 639 -15 q 226 138 331 -15 l 226 -222 l 119 -222 z "},"ÿ":{"ha":821,"x_min":47,"x_max":771,"o":"m 226 826 l 226 958 l 351 958 l 351 826 l 226 826 m 471 826 l 471 958 l 596 958 l 596 826 l 471 826 m 231 -226 q 78 -190 153 -226 l 114 -106 q 226 -132 165 -132 q 309 -102 276 -132 q 374 3 342 -72 l 47 718 l 165 718 l 426 119 l 657 718 l 771 718 l 469 -24 q 369 -180 425 -133 q 231 -226 313 -226 z "},"ı":{"ha":365,"x_min":129,"x_max":236,"o":"m 129 0 l 129 718 l 236 718 l 236 0 l 129 0 z "},"Ł":{"ha":901,"x_min":75,"x_max":836,"o":"m 179 0 l 179 418 l 75 388 l 75 489 l 179 521 l 179 972 l 288 972 l 288 554 l 588 646 l 588 543 l 288 453 l 288 101 l 836 101 l 836 0 l 179 0 z "},"ł":{"ha":449,"x_min":67,"x_max":383,"o":"m 172 0 l 172 446 l 67 413 l 67 517 l 172 549 l 172 1014 l 278 1014 l 278 581 l 383 614 l 383 510 l 278 476 l 278 0 l 172 0 z "},"Œ":{"ha":1571,"x_min":94,"x_max":1488,"o":"m 611 101 l 803 101 l 803 871 l 611 871 q 319 763 429 871 q 208 489 208 654 l 208 486 q 319 211 208 321 q 611 101 431 101 m 1488 0 l 611 0 q 240 138 385 0 q 94 483 94 276 l 94 486 q 240 833 94 694 q 611 972 385 972 l 1481 972 l 1481 872 l 913 872 l 913 540 l 1418 540 l 1418 440 l 913 440 l 913 100 l 1488 100 l 1488 0 z "},"œ":{"ha":1457,"x_min":75,"x_max":1389,"o":"m 449 79 q 636 160 563 79 q 710 356 710 240 l 710 358 q 633 557 710 475 q 446 639 557 639 q 258 558 332 639 q 185 361 185 476 l 185 358 q 261 160 185 242 q 449 79 338 79 m 818 401 l 1281 401 q 1212 574 1272 504 q 1051 643 1151 643 q 894 575 960 643 q 818 401 829 507 m 443 -17 q 182 93 289 -17 q 75 356 75 203 l 75 358 q 183 623 75 513 q 447 733 290 733 q 633 681 550 733 q 761 543 715 629 q 880 682 803 631 q 1056 733 957 733 q 1299 625 1210 733 q 1389 353 1389 517 q 1388 315 1389 332 l 818 315 q 901 141 829 206 q 1071 76 972 76 q 1297 178 1199 76 l 1364 118 q 1069 -17 1247 -17 q 887 35 969 -17 q 760 176 804 86 q 631 36 714 89 q 443 -17 547 -17 z "},"Š":{"ha":889,"x_min":74,"x_max":803,"o":"m 403 1058 l 256 1240 l 347 1240 l 451 1147 l 556 1240 l 644 1240 l 497 1058 l 403 1058 m 471 -14 q 74 142 246 -14 l 142 222 q 298 118 219 151 q 475 85 376 85 q 632 131 572 85 q 692 250 692 178 l 692 253 q 639 365 692 324 q 439 438 586 406 q 190 538 267 475 q 113 718 113 601 l 113 721 q 203 910 113 835 q 432 986 294 986 q 616 957 536 986 q 774 867 696 928 l 710 782 q 429 888 581 888 q 278 843 335 888 q 222 731 222 799 l 222 728 q 277 613 222 656 q 486 539 332 571 q 727 438 651 501 q 803 264 803 374 l 803 261 q 710 62 803 138 q 471 -14 617 -14 z "},"š":{"ha":692,"x_min":60,"x_max":613,"o":"m 303 826 l 156 1008 l 247 1008 l 351 915 l 456 1008 l 544 1008 l 397 826 l 303 826 m 357 -14 q 60 92 192 -14 l 114 168 q 363 76 233 76 q 470 107 429 76 q 511 190 511 138 l 511 193 q 465 268 511 242 q 332 319 419 294 q 275 337 293 331 q 222 357 257 343 q 170 384 188 371 q 133 417 153 397 q 103 464 113 438 q 94 522 94 490 l 94 525 q 163 674 94 617 q 339 731 232 731 q 597 651 478 731 l 549 571 q 336 640 442 640 q 235 611 274 640 q 197 536 197 582 l 197 533 q 208 497 197 514 q 233 469 219 481 q 277 446 247 458 q 325 428 307 433 q 382 410 343 422 q 449 388 422 397 q 510 360 476 378 q 565 323 544 343 q 599 272 585 303 q 613 204 613 242 l 613 201 q 540 44 613 101 q 357 -14 468 -14 z "},"Ÿ":{"ha":994,"x_min":38,"x_max":957,"o":"m 313 1054 l 313 1186 l 438 1186 l 438 1054 l 313 1054 m 557 1054 l 557 1186 l 682 1186 l 682 1054 l 557 1054 m 442 0 l 442 385 l 38 972 l 171 972 l 499 486 l 829 972 l 957 972 l 553 386 l 553 0 l 442 0 z "},"Ž":{"ha":963,"x_min":93,"x_max":872,"o":"m 440 1058 l 293 1240 l 385 1240 l 489 1147 l 593 1240 l 682 1240 l 535 1058 l 440 1058 m 93 0 l 93 74 l 722 874 l 114 874 l 114 972 l 872 972 l 872 899 l 242 99 l 872 99 l 872 0 l 93 0 z "},"ž":{"ha":772,"x_min":78,"x_max":700,"o":"m 351 826 l 204 1008 l 296 1008 l 400 915 l 504 1008 l 593 1008 l 446 826 l 351 826 m 78 0 l 78 68 l 554 628 l 94 628 l 94 718 l 700 718 l 700 650 l 222 90 l 700 90 l 700 0 l 78 0 z "},"ƒ":{"ha":714,"x_min":57,"x_max":664,"o":"m 129 -7 q 57 -1 85 -7 l 57 90 q 118 85 81 85 q 226 190 208 85 l 288 518 l 151 518 l 151 611 l 303 611 l 335 776 q 406 931 354 882 q 551 979 457 979 q 664 964 618 979 l 664 872 q 568 886 617 886 q 485 857 514 886 q 443 761 456 828 l 415 611 l 615 611 l 615 518 l 399 518 l 336 179 q 267 38 317 82 q 129 -7 218 -7 z "},"ˆ":{"ha":694,"x_min":153,"x_max":542,"o":"m 153 826 l 300 1008 l 394 1008 l 542 826 l 450 826 l 346 919 l 242 826 l 153 826 z "},"ˇ":{"ha":694,"x_min":153,"x_max":542,"o":"m 300 826 l 153 1008 l 244 1008 l 349 915 l 453 1008 l 542 1008 l 394 826 l 300 826 z "},"˘":{"ha":694,"x_min":142,"x_max":553,"o":"m 490 872 q 463 848 490 872 q 347 824 435 824 q 204 872 260 824 q 142 1008 149 921 l 219 1008 q 347 913 246 913 q 475 1008 449 913 l 553 1008 q 490 872 546 921 z "},"˙":{"ha":694,"x_min":282,"x_max":413,"o":"m 282 826 l 282 960 l 413 960 l 413 826 l 282 826 z "},"˚":{"ha":694,"x_min":203,"x_max":492,"o":"m 287 901 q 300 889 287 901 q 347 876 313 876 q 408 901 382 876 q 433 961 433 926 l 433 964 q 408 1024 433 999 q 347 1049 383 1049 q 286 1024 311 1049 q 261 964 261 999 l 261 961 q 287 901 261 926 m 448 865 q 426 844 448 865 q 347 824 404 824 q 247 865 290 824 q 203 961 203 906 l 203 964 q 247 1060 203 1019 q 347 1101 290 1101 q 448 1060 404 1101 q 492 964 492 1019 l 492 961 q 448 865 492 906 z "},"˛":{"ha":694,"x_min":254,"x_max":500,"o":"m 500 -171 l 500 -228 q 318 -193 382 -235 q 254 -78 254 -151 q 274 14 254 -32 l 357 14 q 349 -57 349 -22 q 500 -171 349 -162 z "},"˜":{"ha":694,"x_min":119,"x_max":575,"o":"m 185 814 l 119 832 q 171 944 140 911 q 251 978 201 978 q 350 950 285 978 q 438 922 415 922 q 478 937 464 922 q 510 990 493 951 l 575 972 q 524 860 554 893 q 443 826 493 826 q 344 854 410 826 q 257 882 279 882 q 216 867 231 882 q 185 814 201 853 z "},"˝":{"ha":694,"x_min":117,"x_max":581,"o":"m 117 826 l 249 1028 l 353 976 l 203 826 l 117 826 m 344 826 l 476 1028 l 581 976 l 429 826 l 344 826 z "},"Ω":{"ha":1021,"x_min":61,"x_max":1004,"o":"m 160 0 l 160 624 l 61 624 l 61 717 l 160 717 l 160 779 q 222 964 160 901 q 376 1019 278 1019 q 494 1001 444 1019 l 494 908 q 390 926 432 926 q 265 774 265 926 l 265 715 l 493 715 l 493 624 l 267 624 l 267 0 l 160 0 m 671 0 l 671 624 l 572 624 l 572 717 l 671 717 l 671 779 q 732 964 671 903 q 886 1019 789 1019 q 1004 1001 956 1019 l 1004 908 q 901 926 943 926 q 776 774 776 926 l 776 715 l 1003 715 l 1003 624 l 776 624 l 776 0 l 671 0 z "},"π":{"ha":1153,"x_min":74,"x_max":1079,"o":"m 483 482 l 600 482 q 695 508 660 482 q 731 583 731 535 l 731 586 q 601 685 731 685 l 483 685 l 483 482 m 406 239 l 406 754 l 608 754 q 755 710 701 754 q 808 588 808 667 l 808 585 q 748 457 808 501 q 599 413 688 413 l 483 413 l 483 239 l 406 239 m 575 26 q 901 162 769 26 q 1033 486 1033 297 l 1033 489 q 902 813 1033 679 q 578 946 771 946 q 251 810 383 946 q 119 486 119 675 l 119 483 q 251 160 119 293 q 575 26 382 26 m 575 -17 q 219 130 365 -17 q 74 483 74 276 l 74 486 q 220 840 74 692 q 578 989 367 989 q 933 842 788 989 q 1079 489 1079 696 l 1079 486 q 933 132 1079 281 q 575 -17 786 -17 z "},"–":{"ha":733,"x_min":90,"x_max":643,"o":"m 90 364 l 90 471 l 643 471 l 643 364 l 90 364 z "},"—":{"ha":1247,"x_min":90,"x_max":1157,"o":"m 90 364 l 90 471 l 1157 471 l 1157 364 l 90 364 z "},"‘":{"ha":340,"x_min":100,"x_max":269,"o":"m 100 664 l 100 789 q 136 917 100 872 q 253 979 172 961 l 269 931 q 195 883 217 911 q 176 810 174 854 l 228 810 l 228 664 l 100 664 z "},"’":{"ha":340,"x_min":71,"x_max":242,"o":"m 88 657 l 71 706 q 164 826 172 743 l 114 826 l 114 972 l 242 972 l 242 847 q 205 719 242 764 q 88 657 168 675 z "},"‚":{"ha":340,"x_min":64,"x_max":235,"o":"m 81 -169 l 64 -121 q 157 0 165 -83 l 107 0 l 107 146 l 235 146 l 235 21 q 198 -107 235 -62 q 81 -169 161 -151 z "},"“":{"ha":618,"x_min":100,"x_max":547,"o":"m 100 664 l 100 789 q 136 917 100 872 q 253 979 172 961 l 269 931 q 195 883 217 911 q 176 810 174 854 l 228 810 l 228 664 l 100 664 m 378 664 l 378 789 q 414 917 378 872 q 531 979 450 961 l 547 931 q 473 883 494 911 q 454 810 451 854 l 504 810 l 504 664 l 378 664 z "},"”":{"ha":618,"x_min":71,"x_max":518,"o":"m 88 657 l 71 706 q 164 826 172 743 l 114 826 l 114 972 l 242 972 l 242 847 q 205 719 242 764 q 88 657 168 675 m 365 657 l 349 706 q 442 826 450 743 l 392 826 l 392 972 l 518 972 l 518 847 q 482 719 518 764 q 365 657 446 675 z "},"„":{"ha":618,"x_min":64,"x_max":511,"o":"m 81 -169 l 64 -121 q 157 0 165 -83 l 107 0 l 107 146 l 235 146 l 235 21 q 198 -107 235 -62 q 81 -169 161 -151 m 358 -169 l 342 -121 q 435 0 443 -83 l 385 0 l 385 146 l 511 146 l 511 21 q 475 -107 511 -62 q 358 -169 439 -151 z "},"†":{"ha":569,"x_min":83,"x_max":486,"o":"m 247 331 l 256 722 l 83 711 l 83 788 l 254 776 l 242 972 l 328 972 l 315 776 l 486 788 l 486 711 l 314 722 l 322 331 l 247 331 z "},"‡":{"ha":597,"x_min":97,"x_max":500,"o":"m 256 0 l 268 196 l 97 185 l 97 261 l 269 250 l 261 486 l 269 722 l 97 711 l 97 788 l 268 776 l 256 972 l 342 972 l 329 776 l 500 788 l 500 711 l 328 722 l 336 486 l 328 250 l 500 261 l 500 185 l 329 196 l 342 0 l 256 0 z "},"•":{"ha":664,"x_min":150,"x_max":514,"o":"m 460 360 q 434 333 460 360 q 332 307 407 307 q 203 360 257 307 q 150 488 150 413 l 150 490 q 204 618 150 565 q 332 671 258 671 q 459 617 404 671 q 514 490 514 564 l 514 488 q 460 360 514 413 z "},"…":{"ha":1004,"x_min":107,"x_max":899,"o":"m 107 0 l 107 143 l 231 143 l 231 0 l 107 0 m 440 0 l 440 143 l 564 143 l 564 0 l 440 0 m 774 0 l 774 143 l 899 143 l 899 0 l 774 0 z "},"‰":{"ha":1682,"x_min":72,"x_max":1608,"o":"m 867 67 q 958 115 922 67 q 993 235 993 164 l 993 238 q 956 359 993 310 q 864 408 918 408 q 773 360 808 408 q 738 240 738 311 l 738 238 q 775 116 738 165 q 867 67 813 67 m 1390 67 q 1481 115 1446 67 q 1517 235 1517 164 l 1517 238 q 1479 359 1517 310 q 1388 408 1442 408 q 1297 360 1332 408 q 1261 240 1261 311 l 1261 238 q 1299 116 1261 165 q 1390 67 1336 67 m 294 564 q 385 613 350 564 q 421 732 421 661 l 421 735 q 383 856 421 806 q 292 906 344 906 q 201 857 236 906 q 165 738 165 808 l 165 735 q 203 613 165 663 q 294 564 240 564 m 864 -11 q 708 62 769 -11 q 646 235 646 135 l 646 238 q 708 413 646 339 q 867 486 771 486 q 1024 413 964 486 q 1085 240 1085 340 l 1085 238 q 1023 62 1085 135 q 864 -11 961 -11 m 1388 -11 q 1231 62 1293 -11 q 1169 235 1169 135 l 1169 238 q 1232 413 1169 339 q 1390 486 1294 486 q 1548 413 1488 486 q 1608 240 1608 340 l 1608 238 q 1547 62 1608 135 q 1388 -11 1485 -11 m 172 0 l 886 972 l 985 972 l 272 0 l 172 0 m 450 560 q 419 523 450 560 q 292 486 388 486 q 134 559 196 486 q 72 732 72 632 l 72 735 q 135 910 72 836 q 294 983 197 983 q 451 910 389 983 q 513 738 513 838 l 513 735 q 450 560 513 633 z "},"‹":{"ha":456,"x_min":67,"x_max":374,"o":"m 292 57 l 67 354 l 67 365 l 292 661 l 374 615 l 186 361 l 374 104 l 292 57 z "},"›":{"ha":456,"x_min":82,"x_max":388,"o":"m 163 57 l 82 103 l 269 358 l 82 614 l 163 661 l 388 365 l 388 354 l 163 57 z "},"⁄":{"ha":596,"x_min":-94,"x_max":660,"o":"m -94 -136 l 554 1053 l 660 1053 l 11 -136 l -94 -136 z "},"™":{"ha":958,"x_min":36,"x_max":900,"o":"m 174 544 l 174 914 l 36 914 l 36 972 l 372 972 l 372 914 l 235 914 l 235 544 l 174 544 m 467 544 l 467 972 l 532 972 l 685 738 l 836 972 l 900 972 l 900 544 l 840 544 l 840 872 l 688 640 l 679 640 l 528 872 l 528 544 l 467 544 z "},"√":{"ha":1386,"x_min":61,"x_max":1257,"o":"m 1150 0 l 1150 1014 l 1257 1014 l 1257 0 l 1150 0 m 160 0 l 160 624 l 61 624 l 61 717 l 160 717 l 160 779 q 222 964 160 901 q 376 1019 278 1019 q 494 1001 444 1019 l 494 908 q 390 926 432 926 q 265 774 265 926 l 265 715 l 493 715 l 493 624 l 267 624 l 267 0 l 160 0 m 671 0 l 671 624 l 572 624 l 572 717 l 671 717 l 671 779 q 732 964 671 903 q 886 1019 789 1019 q 1004 1001 956 1019 l 1004 908 q 901 926 943 926 q 776 774 776 926 l 776 715 l 1003 715 l 1003 624 l 776 624 l 776 0 l 671 0 z "},"≈":{"ha":1386,"x_min":61,"x_max":1264,"o":"m 1150 0 l 1150 718 l 1257 718 l 1257 0 l 1150 0 m 160 0 l 160 624 l 61 624 l 61 717 l 160 717 l 160 779 q 222 964 160 901 q 376 1019 278 1019 q 494 1001 444 1019 l 494 908 q 390 926 432 926 q 265 774 265 926 l 265 715 l 493 715 l 493 624 l 267 624 l 267 0 l 160 0 m 671 0 l 671 624 l 572 624 l 572 717 l 671 717 l 671 779 q 732 964 671 903 q 886 1019 789 1019 q 1004 1001 956 1019 l 1004 908 q 901 926 943 926 q 776 774 776 926 l 776 715 l 1003 715 l 1003 624 l 776 624 l 776 0 l 671 0 m 1143 875 l 1143 993 l 1264 993 l 1264 875 l 1143 875 z "},"ﬁ":{"ha":876,"x_min":61,"x_max":754,"o":"m 640 0 l 640 718 l 746 718 l 746 0 l 640 0 m 160 0 l 160 624 l 61 624 l 61 717 l 160 717 l 160 779 q 222 964 160 901 q 376 1019 278 1019 q 494 1001 444 1019 l 494 908 q 390 926 432 926 q 265 774 265 926 l 265 715 l 493 715 l 493 624 l 267 624 l 267 0 l 160 0 m 632 875 l 632 993 l 754 993 l 754 875 l 632 875 z "},"ﬂ":{"ha":876,"x_min":61,"x_max":746,"o":"m 640 0 l 640 1014 l 746 1014 l 746 0 l 640 0 m 160 0 l 160 624 l 61 624 l 61 717 l 160 717 l 160 779 q 222 964 160 901 q 376 1019 278 1019 q 494 1001 444 1019 l 494 908 q 390 926 432 926 q 265 774 265 926 l 265 715 l 493 715 l 493 624 l 267 624 l 267 0 l 160 0 z "}}}
